<?xml version="1.0" encoding="UTF-8"?>
<svg id="Layer_2" data-name="Layer 2" xmlns="http://www.w3.org/2000/svg" viewBox="0 0 338 274.4">
  <defs>
    <style>
      .cls-1 {
        fill: #fcdba6;
      }

      .cls-1, .cls-2, .cls-3, .cls-4, .cls-5, .cls-6, .cls-7 {
        stroke-width: 0px;
      }

      .cls-2 {
        fill: #e0ac68;
      }

      .cls-3 {
        fill: #d29748;
      }

      .cls-4 {
        fill: #ecc07d;
      }

      .cls-5 {
        fill: #fde6bc;
      }

      .cls-6 {
        fill: #eeb96c;
      }

      .cls-7 {
        fill: #bf8538;
      }
    </style>
  </defs>
  <g id="Arena">
    <g>
      <rect class="cls-6" width="338" height="274.4"/>
      <path class="cls-3" d="M32.228382,84.390514c0-6.316247,0-39.06383,48.255319-54.765957s97.276596-13.787234,115.659574-11.87234,15.800938,6.893617,45.815363,8.425532,66.014425,10.984262,68.695276,37.492576-3.829787,72.465761-3.06383,85.870017,5.361702,5.381013,6.12766,37.13687-11.87234,63.160112-47.87234,69.287771-1.148936-4.212766-111.06383-3.829787-127.453314-13.351095-129.446809-40.216118c-4.595745-61.933841,6.893617-31.017924,6.893617-127.528563Z"/>
      <path class="cls-3" d="M32.228382,84.390514c0-6.316247,0-39.06383,48.255319-54.765957s97.276596-13.787234,115.659574-11.87234,15.800938,6.893617,45.815363,8.425532,66.014425,10.984262,68.695276,37.492576-3.829787,72.465761-3.06383,85.870017,5.361702,5.381013,6.12766,37.13687-11.87234,63.160112-47.87234,69.287771-1.148936-4.212766-111.06383-3.829787-127.453314-13.351095-129.446809-40.216118c-4.595745-61.933841,6.893617-31.017924,6.893617-127.528563Z"/>
      <path class="cls-7" d="M37.087405,88.909338c0-6.316223,0-39.063782,48.255371-54.76593,48.25531-15.702148,97.27655-13.787231,115.659546-11.872314,18.382996,1.914856,15.800964,6.893616,45.815369,8.425476,20.017883,1.021729,42.684814,5.575806,56.36731,16.353882-12.595581-14.061035-38.607056-19.718262-61.226318-20.872742-30.014465-1.531921-27.432434-6.51062-45.815369-8.425537-18.382996-1.914856-67.404297-3.829773-115.659607,11.872375s-48.25531,48.449707-48.25531,54.76593c0,96.510681-11.48938,65.594727-6.893616,127.528564.717834,9.673889,3.452759,17.644775,11.789307,23.86731-4.614136-5.419739-6.375732-11.875305-6.930298-19.34845-4.595703-61.933838,6.893616-31.017883,6.893616-127.528564Z"/>
      <g>
        <g>
          <path class="cls-7" d="M216.929091,68.362476c.708968,3.552259,7.596537,13.454207,12.791002,12.967226s5.519119-5.356792,8.603332-7.62937,7.467043-2.272578,7.38588-8.441005c-.081164-6.168427-5.223717-22.888111-16.099628-21.995312-7.931626.651104-2.596535,12.899726-3.541942,18.099464-1.298616,7.142389-10.200193,1.680143-9.138644,6.998998Z"/>
          <path class="cls-7" d="M128.119676,91.231651c6.148136,3.591485,7.122098,10.693293,11.991909,10.043985s5.722028-14.020997,20.656114-23.598292c14.934086-9.577295,26.296978-8.278678,29.381192-8.278678s8.116351,1.62327,12.823835,1.37978,17.368992-1.785597,17.693646-13.63547-3.677621-11.611479-8.608304-14.16813c-3.386504-1.755965-42.930527,1.506622-57.458796,9.054829-10.627012,5.521297-35.676336,25.688252-38.07939,24.25092-2.710247,2.228676-2.703902,4.617927-3.197228,8.620303-.246894,4.950974,10.044629,3.554604,14.797022,6.330754Z"/>
          <path class="cls-7" d="M124.978579,191.630917c2.356049-1.965348,11.565801-2.31316,10.186021-8.156933s-11.502718-15.623976-12.406767-36.72649c-.498232-12.418018,3.722271-20.940186,7.536956-26.540469,3.814685-5.600282,6.787827-10.355131,7.609079-13.087617,1.198346-3.987158-1.585856-11.048383-10.063092-16.100812-8.477236-5.052429-9.659642-3.926285-13.372873.700035s-.730472,9.070023-1.339198,12.783253-4.139339,12.783253-6.391627,16.739975-8.826532,13.63547-8.765659,24.409927,2.649092,11.730083,5.478537,21.48804c4.748066,16.374739-.478219,22.377736,3.174139,28.282381,2.92263,4.724919,8.330789,7.32811,11.070057,6.780256s3.246541-7.203262,7.284425-10.571548Z"/>
          <path class="cls-7" d="M228.156097,198.436293c8.007535,3.771725,11.263037,11.816184,5.906245,19.184506-5.356792,7.368322-6.817735,6.881341-12.052782,8.585775-5.235047,1.704434-16.192121,2.678396-23.862073,4.991556-7.669952,2.31316-12.296272,4.017594-22.279384,3.287122s-23.52609-5.498828-30.587315-10.125148-24.653417-12.418018-25.90249-19.661861c-.878185-5.092924,3.652358-7.710534,6.69599-9.780203s7.548207-4.504575,10.835329-4.504575,5.722028,7.061226,7.913443,9.496131,15.339904,10.957074,22.766366,11.565801,17.774809-.121745,25.444761-.608726c7.669952-.486981,14.852923-.608726,16.800847-2.191415s5.356792-8.035188,9.496131-8.765659c4.139339-.730472,6.545874-2.546789,8.824933-1.473302Z"/>
          <path class="cls-7" d="M175.821984,147.17989c-.524701,9.969314,11.084356,13.90947,18.064418,13.990633s21.995312-2.191415,29.218865,3.327704c7.223553,5.519119,1.542107,17.206665.649308,18.667608s-6.524028,2.540319-6.280537,6.923148,3.033997,7.11814,5.387738,7.686284,5.681446-.162327,8.684496,1.217453,6.087264,4.463993,8.684496,4.38283,4.950974-2.759559,5.032138-6.249591-3.733522-11.687546-4.058176-24.836035c-.324654-13.148489,4.377211-9.813905,4.059452-19.803897-.192856-6.063187-4.122285-10.264206-6.326556-11.461447-2.837932-1.541411-4.240187,2.335652-5.930411,2.28997-3.00305-.081164-7.710534,1.542107-14.528269,1.542107s-21.264841-3.814685-28.65072-3.408868-13.843916,2.647887-14.006243,5.7321Z"/>
        </g>
        <g>
          <g>
            <path class="cls-1" d="M237.898488,195.400103c1.339238-1.430507,1.521854-2.434935,1.521854-4.382868s-2.434935-11.444055-2.982784-13.239795-1.156544-10.59182-1.156544-13.909414c0-3.317516.943504-5.96549,2.404434-9.526546s1.887086-7.913423,0-11.200515c-1.887086-3.28717-7.061265-3.835019-8.796081-3.713249-1.734893.121692-13.909414,1.643546-17.166083,1.643546s-13.087602-1.856586-16.648657-2.526204c-3.561056-.669619-8.735235-1.70447-13.361565-.395656-3.943518,1.115566-6.373253,4.061174-7.799258,6.359438-.011098.095227-.029337.193482-.034226.28576-.076291,1.449909.064339,2.699197.348314,3.808632,1.314635,1.818634,2.749721,3.610183,3.761755,4.328075,2.374089,1.684136,7.83232,2.495781,10.287512,2.475448,2.455191-.020256,14.041273-.426079,17.724099-.426079,3.682748,0,9.770008.791311,13.878913,4.291521,4.108905,3.500132,3.408863,9.191737,2.739321,11.535325-.669619,2.343588-2.313165,7.730806-3.561056,9.4657s-2.982784,3.926288-2.861014,6.939495c.121692,3.013207,1.156544,4.656753,2.861014,4.7481,1.704393.091269,5.235025-1.887086,8.035193-1.643624,2.80009.24354,3.104476,2.800168,3.104476,2.800168,0,0-.791311-1.33916-3.1654-1.247891-1.671796.064339-2.612352.803496-3.942276,1.333339,1.232524.093442,2.495704.301127,3.707816.858056,1.039275.477534,2.087941,1.15926,3.123103,1.843159,4.572081,1.763609,6.743064.814361,7.977141-.503922Z"/>
            <path class="cls-4" d="M240.516117,147.554179c-.488244-9.983125-9.253902-9.0903-12.256942-9.17148-3.00304-.08118-7.71055,1.54211-14.528276,1.54211s-21.264821-3.814685-28.650729-3.408863c-7.164875.393715-10.806101,4.907356-11.166367,7.992895,1.426006-2.298264,3.855741-5.243873,7.799258-6.359438,4.62633-1.308814,9.800509-.273963,13.361565.395656,2.657132.499653,8.803066,1.659379,13.10584,2.216385.000155.000078.002018.000543.002018.000543.00357.000388.007839.000854.011409.001242.517969.066977.998064.121925,1.453014.169112,5.110539.641136,13.15877,2.148632,15.295838,3.659388,0,0-1.015371-2.361982-9.490923-3.753063,4.88058-.430891,12.128575-1.319137,13.437545-1.410949,1.734816-.12177,6.908995.426079,8.796081,3.713249,1.887086,3.287093,1.46093,7.63946,0,11.200515s-2.404434,6.20903-2.404434,9.526546c0,3.317593.608695,12.113674,1.156544,13.909414s2.982784,11.291862,2.982784,13.239795-.182616,2.952361-1.521854,4.382868c-1.234076,1.318283-3.40506,2.26753-7.977141.503922,1.956004,1.292361,3.862959,2.592794,5.561375,2.539709,2.597218-.08118,4.950973-2.759578,5.032153-6.24962.081102-3.490043-3.733583-11.687518-4.058225-24.836043-.324642-13.148448,4.547711-9.820765,4.059467-19.803891Z"/>
            <path class="cls-4" d="M227.093628,190.317193c-2.800168-.243462-6.3308,1.734893-8.035193,1.643624-1.70447-.091347-2.739321-1.734893-2.861014-4.7481-.12177-3.013207,1.613123-5.204602,2.861014-6.939495s2.891437-7.122112,3.561056-9.4657c.259838-.909434.520608-2.325117.506793-3.919071,1.22647,2.847432,2.019411,7.287343,2.019411,7.287343.365233-4.30161-1.136288-8.522118-2.805523-11.484568,0,0-.005433.004889-.006364.005666-.377805-.929767-.911607-1.830897-1.657904-2.648518.001242-.000543.005122-.002018.005122-.002018-2.840059-3.64534-6.857617-6.68897-14.365295-8.23108,0,0,6.102549,2.574245,9.377457,4.983336-3.413054-1.410794-7.130493-1.817936-9.691933-1.817936-3.682826,0-15.268907.405823-17.724099.426079-2.455191.020334-7.913423-.791311-10.287512-2.475448-1.012034-.717892-2.44712-2.509441-3.761755-4.328075,1.668692,6.519082,8.945558,7.566118,14.910427,7.635424,6.980085.08118,21.995363-2.191395,29.218911,3.32776,7.223548,5.519078,1.54211,17.206673.649285,18.667603s-3.895865,4.139328-3.652325,8.522118c.243462,4.382868.405745,5.519155,2.7595,6.08726,1.403731.338845,3.155699.221266,4.976739.359412,1.329924-.529843,2.27048-1.269001,3.942276-1.333339,2.374089-.091269,3.1654,1.247891,3.1654,1.247891,0,0-.304386-2.556628-3.104476-2.800168Z"/>
            <path class="cls-5" d="M235.494032,143.090222c1.717511,1.475986,2.150833,5.722028,1.217453,8.197515s-.811635,7.62937-2.718978,7.669952-1.258034-6.817735-2.191415-9.212059-5.07272-5.356792-4.017594-7.101807,5.113301-1.785597,7.710534.446399Z"/>
            <path class="cls-5" d="M177.380957,149.826793c-1.697731-1.028928-2.556651-6.411918,2.394324-8.968568s9.780203-1.298616,9.780203-.324654-4.982938,1.785597-6.711972,3.652358,1.274017,4.829229-.917398,5.640864-3.205959.811635-4.545157,0Z"/>
            <path class="cls-5" d="M230.603739,189.146716c.283661,1.267907,3.647757,5.4643,5.945152,3.479468,2.297395-1.984832-.145471-5.79825-.598313-8.335334s-.484131-6.910105-1.460943-6.942175-.858975,4.128455-1.204788,6.136898c-.345813,2.008443-3.31036,2.848512-2.681107,5.661144Z"/>
          </g>
          <g>
            <path class="cls-1" d="M118.415692,201.376846c.649285,5.001109,6.330723,6.968832,10.226588,8.673224,3.895865,1.70447,10.307768,5.924978,18.992246,10.388948,8.684478,4.46397,22.401108,7.223548,28.397022,7.304728,5.995836.08118,15.268985-2.597218,20.38224-3.733505,5.113333-1.136288,23.618576-4.950973,26.378153-6.574263s7.54819-9.414943,7.406164-12.565131c-.13442-2.982085-1.649988-4.568666-4.494859-7.567748-.442066-.19775-.902061-.385954-1.380526-.563836-.760112-.282578-1.568808-.658831-2.443162-1.017389-2.688021-.471403-5.140962-.444007-7.447453.822045-3.1654,1.737454-6.24962,7.662432-8.684478,8.79872-2.434935,1.136288-17.774856,2.191395-25.404226,2.678398-7.62937.486925-17.531316.495772-22.401108-1.172531-4.869793-1.668226-17.125493-8.648312-18.667603-10.758527s-4.111078-9.25266-6.8036-9.17148c-1.872496.056422-6.168906.898801-9.487586,2.115958-.407918.257122-.800702.514011-1.170281.765312-1.43105.973151-2.775255,3.02772-3.665208,5.445271-.052387,1.742266-.019558,3.919381.267677,6.131808Z"/>
            <path class="cls-4" d="M215.070059,194.79133c-4.139328.730465-7.54819,7.183035-9.496123,8.765658-1.947933,1.5827-9.13089,1.70447-16.800851,2.191473-7.66996.486925-18.018318,1.21739-25.444738.608695-7.426498-.608695-20.574946-9.13089-22.766341-11.565825-2.191473-2.434858-4.62633-9.496123-7.9135-9.496123-2.887945,0-6.713961,1.879325-9.665002,3.739248,3.31868-1.217157,7.61509-2.059536,9.487586-2.115958,2.403503-.072488,4.706268,5.601965,6.270342,8.323979v.002561c1.060851,2.22469,1.304313,6.790174,1.304313,6.790174,0,0,.92806-2.052396.432132-4.825322,3.569515,2.807463,13.26106,8.198717,17.464416,9.638615,4.869793,1.668304,14.771738,1.659456,22.401108,1.172531,7.62937-.487003,22.969291-1.54211,25.404226-2.678398.154133-.071944.310983-.163602.470161-.271635-.34552,2.560042.787819,5.46607.787819,5.46607-.243462-4.829203.527593-5.722028,2.179598-8.580248l-.00031-.000233c1.651695-2.054724,3.435871-4.418413,5.24721-5.412674,2.306491-1.266051,4.759431-1.293448,7.447453-.822045-1.841762-.755378-4.002656-1.42585-6.809499-.930544Z"/>
            <path class="cls-4" d="M225.703246,197.303099c2.844871,2.999082,4.360438,4.585663,4.494859,7.567748.142026,3.150189-4.646586,10.941841-7.406164,12.565131-.416145.244782-1.195194.54001-2.227484.867757-3.500054.753593-10.028217-1.35476-10.028217-1.35476,0,0,2.84037,1.818324,6.473059,2.364-6.706665,1.758564-16.985718,3.895089-20.595512,4.697266-3.096948.688245-7.719087,1.939551-12.215654,2.803427,5.117989-2.070323,8.231313-4.982172,8.231313-4.982172,0,0-10.880995,6.044575-19.051928,5.748958,0,0-.002095.001164-.002484.001397-6.769529-.654485-18.167019-3.249917-25.74051-7.142833-8.684478-4.46397-15.09638-8.684478-18.992246-10.388948-.106791-.046721-.219403-.094607-.328678-.141793,2.925197-.644939,5.523113-2.576651,5.523113-2.576651,0,0-6.388853,2.205365-9.155415.960734l.001009.001707c-2.9907-1.471252-5.819894-3.47615-6.266617-6.917221-.287234-2.212427-.320064-4.389542-.267677-6.131808-1.002876,2.724265-1.42717,5.910853-.717659,8.55549,1.339238,4.991563,16.679081,10.47005,23.740346,15.09638,7.061188,4.62633,20.453176,9.739663,30.436301,10.470128,9.983125.730465,14.609456-.974005,22.279416-3.28717,7.66996-2.313165,18.627013-3.287093,23.862038-4.991563,5.235103-1.704393,6.696033-1.21739,12.052828-8.585758,5.026099-6.913418,2.620501-12.193768-4.098039-15.199447Z"/>
            <path class="cls-5" d="M174.164269,225.045079c3.470761-.484775,8.735807-3.104504,6.118284-4.443702s-9.130895,1.095707-11.200565.669599-10.896202-4.748066-12.600635-1.887052,8.094893,7.000353,17.682917,5.661155Z"/>
            <path class="cls-5" d="M215.527808,199.174209c2.952537-2.752365,11.748419-.852217,11.687546,4.38283s-2.739269,10.896202-6.69599,11.504928-.426108-2.982759-.365236-6.817735c.034524-2.175018-8.217806-5.722028-4.62632-9.070023Z"/>
            <path class="cls-5" d="M121.540459,192.173856c-2.117895,2.117895-1.253249,5.53941,1.443045,5.235047,2.696294-.304363,9.696647-2.918753,12.922897.975529s1.895024-8.401991-4.044044-8.949844-8.9827,1.400071-10.321898,2.739269Z"/>
          </g>
          <g>
            <path class="cls-1" d="M119.288183,121.500745c4.62633-7.974347,11.870134-16.108803,11.322285-21.324658-.404969-3.855818-3.134744-8.014704-4.53281-9.924996-.434383-.29973-.890497-.597519-1.383165-.891118-1.675832-.998763-3.159579-1.833535-4.500136-2.505638-3.05403-.761742-6.933209-1.655809-10.016808,1.531633-3.611735,3.733583-.892747,8.643965-.973927,11.565825-.08118,2.92186-4.159661,14.183299-6.411903,18.383551-2.252319,4.200174-9.861433,12.478907-8.765658,24.409887,1.095698,11.931058,5.356795,17.774856,6.756801,24.288195,1.400084,6.513417.974005,18.180601,2.739321,22.482288,1.765316,4.301688,4.078404,7.893167,6.878571,7.649704,1.717586-.149399,2.837653-.304619,3.785737-.960035,1.275132-2.380919,2.394268-6.128161,5.110616-8.394061.345364-.288088.849053-.540088,1.433999-.781067l-.007063-.001707c-2.308353.863877-7.340506,1.107417-7.908689,4.475689,0,0-1.052003-4.991563,4.26265-6.04667s9.427205-.165232,10.962408-3.785659c1.535203-3.620505-7.604147-10.68177-10.3392-23.769372-2.734975-13.087602-3.039362-28.427522,1.586969-36.401791Z"/>
            <path class="cls-4" d="M120.194357,86.854336c-5.440692-2.72768-8.428675-2.667067-11.407889,1.044708-3.713249,4.626253-.730465,9.069966-1.339238,12.783215-.608695,3.713249-4.139328,12.783293-6.391569,16.740004-2.252319,3.956711-8.826582,13.63545-8.765658,24.409887.060846,10.774437,2.649061,11.730126,5.478488,21.488027,4.7481,16.374772,2.069703,23.55773,5.722028,29.462374,2.922636,4.724895,5.782952,6.148184,8.522195,5.600258.89655-.179279,1.553441-1.019019,2.173778-2.177425-.948083.655416-2.06815.810636-3.785737.960035-2.800168.243462-5.113255-3.348016-6.878571-7.649704-1.322163-3.221823-1.415218-10.575134-1.966792-16.800618l.000078-.000233c-.468221-5.559668-.062398-9.820765.871017-13.310808,0,0-1.325578,1.391236-1.746379,7.205387-1.488714-6.345857-5.582252-12.19338-6.654046-23.864211-1.095775-11.93098,6.513339-20.209713,8.765658-24.409887,1.972613-3.678712,5.345542-12.772971,6.2074-16.93791,1.375093,3.808476,3.532185,4.276387,3.532185,4.276387-1.460464-.527437-2.718134-4.258769-3.523182-7.585521-.529533-2.885771-1.754839-6.679424,1.169427-9.702333,3.083599-3.187441,6.962778-2.293375,10.016808-1.531633Z"/>
            <path class="cls-4" d="M132.222428,103.299811c.516029-2.63742.895619-8.190335-6.144769-13.048719,1.398066,1.910292,4.127841,6.069177,4.53281,9.924996.547849,5.215855-6.695955,13.350311-11.322285,21.324658-.70237,1.210715-1.278081,2.608005-1.761901,4.124582-.279008-4.124504.80823-11.67285.80823-11.67285-1.66388,4.7481-1.54211,10.63241-2.125427,17.65099l.021188-.071867c-1.088557,7.886647-.356463,17.626388,1.470942,26.370936.295694,1.414985.677225,2.746229,1.101053,4.023611-3.110452-3.341652-6.270963-10.719566-6.270963-10.719566.527593,5.88431,5.519155,10.71359,8.0934,15.290949l.002561-.00163c3.659,7.753857,8.571012,12.445457,7.413149,15.176008-1.535203,3.620427-5.647755,2.730551-10.962408,3.785659s-4.26265,6.04667-4.26265,6.04667c.568183-3.368273,5.600335-3.611813,7.908689-4.475689l.007063.001707c3.405603-1.403033,9.929574-2.38868,8.752076-7.375896-1.379828-5.843798-11.502729-15.623973-12.406807-36.726511-.498256-12.417983,3.722252-20.940178,7.536937-26.540436,3.814685-5.600258,7.061265-10.287512,7.609114-13.087602Z"/>
            <path class="cls-5" d="M113.261781,89.664339c2.848225-2.579524,11.261437.121745,13.818088,6.635117,2.556651,6.513372-3.408868,17.287828-5.722028,15.644267s.243491-11.32231-2.495778-13.452852c-2.739269-2.130542-8.826532-5.904646-5.600282-8.826532Z"/>
            <path class="cls-5" d="M125.071072,180.48631c.174822,2.747206-11.626673,5.052429-12.052782,2.617523s4.748066-4.017594,4.930683-6.087264-5.356792-8.56541-3.165377-9.822115,9.861367,6.595865,10.287475,13.291855Z"/>
          </g>
          <g>
            <path class="cls-4" d="M129.210385,83.719126c2.434935.973927,1.54211,3.090196,1.54211,3.090196,0,0,2.921938-3.496019.08118-4.591794-1.37975-.568105-5.803208-.081102-10.104818.32472-4.301688.405823-7.101855-.974005-6.980085-3.04363.12177-2.069703,3.08422-3.692993,5.235025-4.86987,2.150883-1.176878,4.991563-5.153845,9.739663-9.577303,4.748023-4.42338,13.67604-12.09334,25.282378-17.247186,11.606415-5.153923,27.392749-6.533673,32.587184-6.696033,5.194435-.162282,20.534356-.486925,25.688278,2.089183,2.238815,1.119058,4.016781,3.092292,5.313411,4.966572-2.111224-8.387232-13.044528-8.394915-16.444155-8.394915-3.814685,0-34.737989-.811645-49.266264,6.736545-10.627055,5.521328-24.808104,17.209622-33.033596,25.728868-2.272575,2.353677-6.229286,3.140022-6.722575,7.142368-.186885,3.748329,4.793812,3.86063,9.287507,4.897577,4.278638-.087311,6.143217-1.215993,7.794757-.555299Z"/>
            <path class="cls-1" d="M137.164398,94.148587c3.024693-.656658,6.574263-10.47005,10.388948-15.664563,3.814685-5.194435,13.635528-10.38887,19.154606-12.742625,5.519155-2.353755,14.203633-4.058225,18.018318-4.139328,3.814685-.08118,16.719671,2.272575,22.888111.78161,5.215623-1.260696,7.472132-4.485856,9.80082-7.220288.307801-1.066827.500429-2.239746.536207-3.544447.035313-1.289412-.098953-2.430899-.356695-3.454963-1.29663-1.874281-3.074596-3.847514-5.313411-4.966572-5.153923-2.576108-20.493843-2.251465-25.688278-2.089183-5.194435.16236-20.980768,1.54211-32.587184,6.696033-11.606338,5.153845-20.534356,12.823805-25.282378,17.247186-4.7481,4.423458-7.58878,8.400425-9.739663,9.577303-2.150805,1.176878-5.113255,2.800168-5.235025,4.86987-.12177,2.069625,2.678398,3.449453,6.980085,3.04363,4.30161-.405823,8.725068-.892825,10.104818-.32472,2.840758,1.095775-.08118,4.591794-.08118,4.591794,0,0,.892825-2.116269-1.54211-3.090196-1.65154-.660694-3.51612.467988-7.794757.555299,1.441838.332714,2.834626.758793,3.989075,1.433146,2.864584,1.673349,4.603202,4.103705,6.138716,6.162154,1.588986,1.247115,3.857215,2.661789,5.62098,2.278861Z"/>
            <path class="cls-4" d="M207.61438,62.383681c-6.16844,1.490965-19.073426-.86279-22.888111-.78161-1.129846.024059-2.6926.193559-4.468006.477068,1.479556-.801245,3.46381-1.843392,5.137625-2.607617,4.355471-1.988833,10.287434-3.226246,10.287434-3.226246,0,0-7.121258-1.399851-26.779863,8.648389-.770589.271247-1.507729.554368-2.195508.847734-5.519078,2.353755-15.339921,7.54819-19.154606,12.742625-3.814685,5.194513-7.364255,15.007905-10.388948,15.664563-1.763764.382928-4.031993-1.031747-5.62098-2.278861,1.760039,2.359421,3.252401,4.228657,5.853189,3.881895,4.869793-.649363,5.722028-14.021017,20.656126-23.59832,14.934098-9.577303,26.296973-8.278655,29.381194-8.278655s8.116295,1.623212,12.823805,1.37975c4.189231-.216687,14.669991-1.468536,17.157468-10.091003-2.328687,2.734432-4.585197,5.959592-9.80082,7.220288Z"/>
            <path class="cls-5" d="M188.378613,43.340264c.133503,1.869043,7.061226,1.947924,12.0122,4.463993,1.948247.990093,1.947924,7.548207,6.493081,8.846823s11.119401-5.843773,4.788647-9.739622-23.456255-5.843773-23.293928-3.571195Z"/>
            <path class="cls-5" d="M119.957771,78.159411c.949545,1.731523,8.197515,2.029088,9.983112.649308s4.788647-8.525319,7.142389-11.20214,1.055126-6.251165-6.0061,0-12.499181,8.036763-11.119401,10.552832Z"/>
          </g>
          <g>
            <path class="cls-1" d="M222.345528,58.99717c-2.008779,3.03098-6.513339,4.796296-6.269876,7.170307s4.321944,9.13089,8.522195,8.461272c4.200174-.669541,5.539411-5.96549,7.609036-7.365574,2.069703-1.400084,6.513417-2.556628,7.426498-4.62633.913081-2.069625.243462-9.739585-3.28717-14.122453-3.24821-4.032303-6.399563-5.937007-12.524774-5.703712-2.004045,1.02189-2.411031,3.020502-2.358955,5.325906,1.082581,2.496169,2.728146,8.076637.883046,10.860584Z"/>
            <path class="cls-4" d="M221.684912,55.920555c-1.298648,7.142445-8.441015,6.574263-6.655443,11.695667,1.147619,3.291439,5.113333,8.757586,10.307768,8.270584,5.194513-.487003,5.519155-5.356795,8.603375-7.62937,3.08422-2.272575,7.46701-2.272575,7.38583-8.441015-.081102-6.16844-3.976968-18.586423-14.852918-17.693598-1.110987.091192-1.96586.337991-2.652088.687857,6.125211-.233296,9.276564,1.671408,12.524774,5.703712,3.530633,4.382868,4.200251,12.052828,3.28717,14.122453-.913081,2.069703-5.356795,3.226246-7.426498,4.62633-2.069625,1.400084-3.408863,6.696033-7.609036,7.365574-4.200251.669619-8.278733-6.08726-8.522195-8.461272s4.261098-4.139328,6.269876-7.170307c1.845099-2.783947.199535-8.364414-.883046-10.860584.057276,2.540718.648664,5.439683.22243,7.783969Z"/>
            <path class="cls-5" d="M232.633018,48.57531c2.088867-1.228745,7.365589,9.070023,5.235047,12.357145s-5.965518,2.921886-6.269881,1.339198,1.704434-5.843773.669599-8.035188-1.704434-4.443702.365236-5.661155Z"/>
          </g>
        </g>
      </g>
      <path class="cls-2" d="M312.14839,254.559016c.09673,1.160761,2.000586,1.8213,4.287527,1.708522s4.520984-1.963842,3.755026-3.623416-8.170213.382979-8.042553,1.914894Z"/>
      <path class="cls-7" d="M97.972632,55.56927c.09673,1.160761,2.000586,1.8213,4.287527,1.708522s4.520984-1.963842,3.755026-3.623416-8.170213.382979-8.042553,1.914894Z"/>
      <path class="cls-7" d="M56.589086,151.597439c.469232.664745.095745,1.978723-1.021277,2.297872s-2.712766.12766-2.648936-.542553,2.904255-2.840426,3.670213-1.755319Z"/>
      <path class="cls-7" d="M74.071589,132.33695c.170837.615011,2.106383,1.148936,2.648936,1.244681s1.5-.765957,1.340426-1.244681-1.29081-.478723-1.98583-.765957-2.163106.191489-2.003531.765957Z"/>
      <path class="cls-2" d="M210.403619,264.825538c-.14181.979146-1.276596,1.946809-2.393617,2.010638s-1.404255-.40486-1.43617-1.526898.542553-1.409272,1.914894-1.473102,1.962872.65809,1.914894.989362Z"/>
      <path class="cls-7" d="M193.386527,178.341824c-.14181.979146-1.276596,1.946809-2.393617,2.010638s-1.404255-.40486-1.43617-1.526898.542553-1.409272,1.914894-1.473102,1.962872.65809,1.914894.989362Z"/>
      <path class="cls-7" d="M273.400334,184.711835c.182035,2.002381-2.010638,2.170213-3.319149,2.234043s-2.680851-.159574-2.680851-1.37234.957447-1.62766,3-1.851064,2.904255-.06383,3,.989362Z"/>
      <path class="cls-7" d="M65.335797,65.018106c-.19104.57312-2.944149-.071809-1.867021-1.62766.818536-1.220745,2.034574,1.125,1.867021,1.62766Z"/>
      <path class="cls-7" d="M70.574468,237.260195c1.280404.024623,1.543883-2.716755.670213-2.920213s-1.843085.753989-2.058511,1.639628.765957,1.268617,1.388298,1.280585Z"/>
      <path class="cls-2" d="M98.089977,263.670726c1.280404.024623,1.543883-2.716755.670213-2.920213s-1.843085.753989-2.058511,1.639628.765957,1.268617,1.388298,1.280585Z"/>
      <path class="cls-7" d="M89.531915,171.974389c-.402301,1.005751-3.319149-.191489-3.351064-1.276596s1.053191-1.244681,1.882979-1.244681,1.851064,1.56383,1.468085,2.521277Z"/>
      <path class="cls-7" d="M103.356405,222.815108c-.1552.665142-2.585106.670213-2.617021-1.340426s3.06383-.574468,2.617021,1.340426Z"/>
      <path class="cls-2" d="M243.109433,12.218145c-.089551-.746257-2.226064-.876259-3.087766-.450097s-2.058511.928821-2.034574,1.407544,1.699468.694149,3.087766.287234,2.106383-.646277,2.034574-1.244681Z"/>
      <path class="cls-7" d="M63.975701,100.612343c1.412658.858675-2.393617,3.710106-3.614362,2.106383s1.172872-3.590426,3.614362-2.106383Z"/>
      <path class="cls-7" d="M145.574468,151.057603c.638298-.829787-.367021-2.010638-1.468085-2.026596s-1.015626,1.484043-.388132,2.026596,1.856217,0,1.856217,0Z"/>
      <path class="cls-7" d="M208.290283,117.761709c.638298-.829787-.367021-2.010638-1.468085-2.026596s-1.015626,1.484043-.388132,2.026596,1.856217,0,1.856217,0Z"/>
      <path class="cls-7" d="M170.664825,122.00515c.079787,1.276596-1.180851,1.005319-2.281915,1.037234s-1.468085-.670213-.462766-1.723404,2.696809-.079787,2.744681.68617Z"/>
      <path class="cls-7" d="M249.04367,88.750102c.079787,1.276596-1.180851,1.005319-2.281915,1.037234s-1.468085-.670213-.462766-1.723404,2.696809-.079787,2.744681.68617Z"/>
      <path class="cls-7" d="M180.213227,84.878618c.043866.541012-.973404,1.811313-2.202128,1.871082s-2.218085-.355125-2.265957-2.078529,1.946999-1.531915,2.234138-1.531915,2.186075,1.148936,2.233947,1.739362Z"/>
      <path class="cls-7" d="M197.858156,28.9064c.043866.541012-.973404,1.811313-2.202128,1.871082s-2.218085-.355125-2.265957-2.078529,1.946999-1.531915,2.234138-1.531915,2.186075,1.148936,2.233947,1.739362Z"/>
      <path class="cls-2" d="M322.578191,141.587767c.043866.541012-.973404,1.811313-2.202128,1.871082s-2.218085-.355125-2.265957-2.078529,1.946999-1.531915,2.234138-1.531915,2.186075,1.148936,2.233947,1.739362Z"/>
      <path class="cls-2" d="M28.977502,16.975021c1.937506,1.322425.485199,4.767611-1.118068,6.813886s-2.594762,3.185439-4.282412,3.143248-5.126236-1.392311-4.978567-4.24022,4.72542-4.619941,6.012253-5.358288,3.03777-1.265737,4.366794-.358626Z"/>
      <path class="cls-2" d="M323.699866,66.260154c.875286-.251976,1.867021.718085,1.843085,1.412234s-2.345745,1.52421-2.704787,1.276733-.718085-2.23418.861702-2.688967Z"/>
      <path class="cls-7" d="M62.148936,207.32319c-.1595,1.347067-1.037234,1.515957-2.393617,1.56383s-2.968085-.925532-2.968085-1.803191,3.351064-1.276596,4.308511-1.308511,1.108612,1.07982,1.053191,1.547872Z"/>
      <path class="cls-2" d="M14.049202,73.662255c1.719587-.114639,1.986702,1.412234,1.950798,2.154255s-1.352394,1.424202-2.202128,1.472074-1.723404.023936-1.711436-1.543883,1.244681-2.034574,1.962766-2.082447Z"/>
      <path class="cls-7" d="M267.397836,51.668301c.054834.342715-.801862.610372-1.711436.658245s-1.340426-.323138-1.340426-.658245.5625-.634309,1.37633-.634309,1.62766.335106,1.675532.634309Z"/>
      <path class="cls-7" d="M298.181257,169.439048c.054834.342715-.801862.610372-1.711436.658245s-1.340426-.323138-1.340426-.658245.5625-.634309,1.37633-.634309,1.62766.335106,1.675532.634309Z"/>
      <path class="cls-7" d="M124.721893,244.360264c-.55138,1.010275.518845,2.218085,3.582675,3.079787s4.595745,1.755319,4.946809,1.308511-.718085-2.409574-2.329787-3.574468-5.3462-2.37766-6.199696-.81383Z"/>
      <path class="cls-7" d="M124.238908,32.38262c-.449841.505959-1.132979,1.659574.590426,1.611702s1.595745-.494681,1.595745-1.132979-.143617-.941489-.829787-.957447-1.207038.310747-1.356383.478723Z"/>
      <path class="cls-2" d="M55.953147,16.784789c-.449841.505959-1.132979,1.659574.590426,1.611702s1.595745-.494681,1.595745-1.132979-.143617-.941489-.829787-.957447-1.207038.310747-1.356383.478723Z"/>
      <path class="cls-2" d="M324.034574,19.119602c-.032904.394845-1.460106.50266-2.25.981383s-3.518617.239362-5.337766,0-5.050532,0-6.773936-1.220745-1.914894-2.441489,1.388298-4.619681,6.055851-2.058511,8.425532-.526596,2.369681,2.56117,2.992021,3.398936,1.603723,1.412234,1.555851,1.986702Z"/>
      <path class="cls-7" d="M288.848404,84.737147c1.431201.124252,1.723404-.991927,1.74734-1.733948s-.837766-1.484043-1.603723-1.484043-.981383.718085-1.053191,1.795213-.071809,1.337577.909574,1.422778Z"/>
      <path class="cls-7" d="M301.032762,116.618888c.082062.521873-.223404,1.43617-1.053191,2.042553s-2.202128,1.5-3.12766.191489,1.691489-2.234043,2.553191-2.234043,1.577955-.316095,1.62766,0Z"/>
      <path class="cls-7" d="M266.528571,129.878038c.59861.038372-.351064,1.340426-1.675532,2.090426s-2.904255.909574-2.87234-.462766,3.303191-1.707447,4.547872-1.62766Z"/>
      <path class="cls-2" d="M35.101064,258.150966c.044013.528154-1.041223,1.340426-3.015957,1.388298s-3.231383-.981383-3.207447-1.950798,1.053191-1.352394,3.195479-1.304521,3.003989,1.579787,3.027926,1.867021Z"/>
      <path class="cls-7" d="M257.979738,239.050068c.144398,2.508078,4.093085.746048,5.505319.626367s3.159574.550532,6.12766-1.268617,4.212766-3.662234,4.164894-5.696809-3.111702-3.901596-6.343085-3.781915c-3.231383.119681-9.789894,4.300458-9.454787,10.120973Z"/>
      <path class="cls-2" d="M94.590342,13.910384c-.055194.496745-1.531915,1.484043-2.393617,1.507979s-2.202128-1.268617-2.226064-2.56117,2.465426-1.125,3.638298-.119681.99734,1.029255.981383,1.172872Z"/>
      <path class="cls-2" d="M16.345409,148.836493c-.055194.496745-1.531915,1.484043-2.393617,1.507979s-2.202128-1.268617-2.226064-2.56117,2.465426-1.125,3.638298-.119681.99734,1.029255.981383,1.172872Z"/>
    </g>
  </g>
</svg>