<?xml version="1.0" encoding="UTF-8"?>
<svg id="Layer_2" data-name="Layer 2" xmlns="http://www.w3.org/2000/svg" viewBox="0 0 2359.155754 1293.715518">
  <defs>
    <style>
      .cls-1 {
        fill: #eeb96c;
        stroke-width: 0px;
      }
    </style>
  </defs>
  <g id="Capa_2" data-name="Capa 2">
    <path class="cls-1" d="M1672.655754,186.5554c.699951-.100006,4.400024-1.899994,4.599976-2.899994l-6.5-23.700012c4.400024-8.399994,51-9.299988,62.099976-10.899994,5.699951-.799988,31.900024-4.899994,34-8.600006,1-1.700012-2.5-7,2.199951-10.899994,6.300049-3.299988,16.099976-6.299988,21.800049-.799988l-3.5,3.5,14.199951,4.5-7.099976,3.5c.199951,8.5,11.699951,4.600006,17.800049,5.299988l-1.800049-7.100006c10.300049,1.5,20.599976,2.399994,29.300049,8.899994,28.400024,21.200012-16.099976,29.700012-29.300049,41.700012-4.800049,4.299988-8,10.399994-12.400024,15.100006,10.5-1.399994,20.300049-6.399994,31-7.100006,16.599976-1.100006,34.800049,6.799988,52.5,3.600006l-5.300049,10.600006h34.599976c1,0,3-5.299988,4.400024-6.200012,2.099976-1.299988,28.400024-1.600006,29.900024-.600006.599976.399994,7.300049,12.399994,7.400024,13.100006,1.099976,7.299988-9.400024,17.700012.800049,27.5,13.899902,13.399994,12.400024-11.899994,24-6.299988,10.600098,5.100006,4.5,1.799988,13.399902,2.700012,8.800049.899994,19.100098,5.700012,28.100098,3.200012,9.5-2.700012-1.199951-10.5.300049-13.899994,1.100098-2.600006,7.199951-6.600006,10.399902-6.600006,6.399902,0,37.100098,10.799988,44.5,14,4,1.700012,12.800049,5.899994,15.800049,8.600006,4.100098,3.700012,5.600098,11.899994,11.899902,13.5,4.699951,1.200012,13.899902-3.100006,20.399902-2.899994,10.300049.399994,36.800049,7.399994,27.800049,22.100006,1.5,6.299988,43.899902,5.200012,51.899902,6.799988,6.5,1.299988,9.5,13.899994,20.800049,10.199982l-3.5-14.200012c1.699951-1.5,37.399902,5,42.300049,6.600006,16.300049,5.399994,39.100098,25.399994,54.800049,33.999969,11.600098,6.299988,26.600098,8.299988,36.100098,19-3,5.900024-14.5.599976-16.100098,1.700012l-3.5,11.700012c-1.100098.900024-16.300049-4-18.399902-5.5-6.899902-4.799988-5.800049-12.200012-20.600098-8.700012v-7.099976h-5.199951c-.800049,12.200012-11.100098,14.299988-21.399902,14.200012l13.300049,19.5-1.899902,3.400024c-6.300049.5-10.100098-2.599976-16.800049-.900024-11,2.799988-31.800049,19.400024-40.600098,21.5-2.899902.700012-9.5-3.200012-15.300049-2.799988-4.899902.299988-7.100098,3.400024-11.600098,3.700012-1-.900024,2.199951-6.299988-2.600098-5.299988-4.300049,1-26.800049,14.700012-27.5,18.799988-.300049,4.700012,7.800049,5.799988,8.5,8.799988,1,4.299988-7.800049,25-11.199951,29.299988-1.699951,2.099976-4.699951,2.599976-6.399902,4.700012-4.199951,5.5-10.199951,35.400024-21.300049,24.5-7.100098-7-12.699951-43.299988-9.800049-52.5s17.5-10,24.5-15.900024c2.5-2.099976,3.600098-5.700012,6.600098-8.099976,6.600098-5.200012,21.300049-13.200012,24.100098-20.299988,1.5-3.799988-1.300049-9.900024,4.300049-9,.600098-2-2.100098-2.599976-3.5-2.799988-9.300049-1-11.899902,10.5-18.600098,11.700012-6.199951,1.099976.199951-7.799988-.899902-8.900024-14.5,2.5-37,5.900024-43.399902,21.400024-2.899902,6.799988.600098,3.299988,2.600098,7-8,3.799988-14.899902,0-23.100098,0-2-1.599976,7.399902-2.099976,1.800049-4.5-3.100098-1.299988-13.399902-3.099976-16.399902-2.299988-2.600098.700012-5.199951,4.5-7.5,4.299988-1.800049-.099976-9.600098-3.900024-14.5-4.5-4.5-.5-13.100098-1-17.199951.099976s-23.100098,23.200012-28.800049,28c-6.699951,5.5-16.699951,10.700012-23.899902,16.099976l1.100098,3.5c8.600098-.799988,9.600098,5.599976,11.5,12.200012l12.199951.200012c1.199951-1.200012-2.699951-10.099976,2.699951-8.900024,8.199951,4.299988,13.899902,10.599976,13.199951,20.200012-.399902,5.599976-5.699951,27-7.5,33.5-4,14.599976-12.100098,30.700012-21.699951,42.200012-5.600098,6.799988-26,29.799988-31.199951,14.200012h-2.600098c-9.699951,5.799988-11.099976,15.299988-16.099976,23-2.300049,3.599976-9.300049,7.900024-10.599976,10.799988-2.900024,6.400024,9.199951,17.099976,9.800049,25.900024.699951,9.799988-5.900024,24.299988-17.699951,22-.300049-5.599976.5-11.299988,0-16.799988s-5.800049-3.299988,1.800049-12.299988c-8.5-6.900024-12.5-5.299988-10.800049-18.599976-6.300049-1.900024-11.300049-2.599976-17.599976-.200012-3.099976-19.099976-9.599976-6.299988-18.900024-.299988-4.199951,2.700012-14.199951,2.599976-12.300049,9.200012,4.400024,15.299988,16.099976,8.400024,27.699951,8.799988,4.699951,4.5-16.800049,15.900024-17.599976,20.700012,2.900024,6.099976,9.199951,10,11.199951,17,2.099976,7.400024-1.800049,11.700012-.599976,18.200012.800049,4.200012,6.699951,7.5,6.5,10.700012-.099976,1.799988-15.199951,28.700012-17.5,31.700012-5.099976,6.900024-15,14.5-22.699951,18.200012-8.199951,3.900024-26.199951,6.200012-31,9.799988-2.599976,2-2.900024,4-2.800049,7-5.800049-2.700012-.5-10.900024-9.5-10.099976-5.099976.400024-21.199951,11.599976-22.199951,16.799988-1.400024,7.400024,14.599976,18.299988,18.5,27,10.800049,23.900024-6.300049,33.5-23.199951,46.299988.400024-16.799988-12.900024-24.400024-27.699951-27.5l.199951-4.5h-5.300049c1.400024,9.799988-8.099976,14.799988-5.400024,25.400024.400024,1.699951,3.900024,2.099976,5.199951,4.099976,2.400024,3.699951,1.699951,9.099976,4.699951,13.199951,2.900024,4.099976,11.199951,7,14.099976,12.599976,3.300049,6.300049,4.400024,19.199951,8.099976,26.5-21.900024-5.400024-17.199951-18.699951-24.099976-31.800049-2.699951-5.099976-15.699951-13.199951-16.5-15.5-1.199951-3.599976,2.099976-20.799988,1.5-28.099976-.800049-10.400024-5.5-20.799988-7.099976-31.099976-7.699951,2.5-9.5,9.799988-19.5,7.099976,9.099976-22.900024-12.699951-27.900024-17.800049-46.200012-5.699951,1.5-9.199951,5.599976-15.5,6.700012-3.300049.599976-14.099976,0-14.599976.5-.300049.299988,0,5-2.599976,8.900024-1.400024,2.099976-19.900024,19.900024-23.199951,23-3.5,3.200012-15.900024,10-17,11.400024-3.300049,4.200012-.900024,14.900024-2,21.099976-.699951,3.599976-8.099976,23.199951-10.099976,25.400024-2.800049,2.900024-8.400024,6.599976-10.5,1.400024l-26.900024-54.799988v-40c-10,13.200012-17.699951,11.5-26.599976-1.799988l10.699951-3.5c-6.199951.599976-12.800049-.5-17.699951-4.5-8.5-7-1.099976-15.799988-18.599976-13.099976-6.800049,1-10.599976,5.700012-19.599976,5.299988-3.599976-.200012-26.400024-6.099976-29.900024-7.5-3.199951-1.299988-3.199951-5.5-6-6.5-6.300049-2.200012-16,1.599976-24.199951-3.799988-1.599976-1-1.900024-3.400024-3.199951-4.400024-2.300049-1.799988-5.099976-2-7.099976-4.099976-5-5.5-4-19.799988-16.400024-16.200012-2.900024.900024-7.400024,5.700012-6.400024,9.099976l19.300049,29.700012.900024-5.299988,4.699951,14,18.900024-2.900024,12.900024-11.099976c-3.400024,13.299988,10.400024,11.299988,16,17,1.5,1.5,4,7.900024,6.900024,10.200012-1.099976,5.599976-4.5,9.200012-8.699951,12.5-.800049.700012-2.900024-1-3.599976.299988-1.800049,3.400024-.900024,9.599976-2,11.200012-.5.700012-11.5,3.599976-14.599976,5.900024-15.300049,11.099976-29.099976,18.5-45.900024,26.900024l-32.199951,8.5c-5.699951-17.299988-7.300049-32.099976-18.900024-47.200012-2.5-3.200012-8.099976-5.799988-9-7.400024-2.599976-4.5-1.5-13-4.900024-19.599976-2.300049-4.599976-6.900024-7.099976-9.599976-11.700012-5.699951-9.799988-12.400024-22.599976-15.699951-33.200012l-8.800049,7.099976c-1.199951-.900024-1.699951-12.5-7.099976-10.599976,3.099976,13.700012,11.800049,26.799988,18.099976,39.599976,3.599976,7.5,8,13.799988,10.800049,19.5,3.800049,7.5,1.599976,15.599976,4,20.799988.599976,1.400024,13.199951,23.799988,14.199951,24.900024,3.300049,3.700012,15.900024,7.900024,20.199951,15.400024,2.900024,5-1.300049,8.200012,1.800049,12.299988,1.099976,1.5,9.699951,7,11.599976,7.099976,8.900024.799988,31.599976-8.400024,42.800049-9.799988,2.800049-.299988,2.900024-.400024,2.5,2.5-.699951,5.400024-6.400024,17.599976-9.099976,22.900024-17.099976,33.900024-39.400024,46.300049-59.800049,75.199951-2.699951,3.800049-14.699951,21.300049-14.199951,24.199951.400024,2.199951,4.199951,4.599976,4.699951,7.800049.5,3.400024-2.099976,7-1.199951,11.699951.800049,4,5.099976,6.5,6.699951,11.199951,3.300049,9.699951,2.5,31.800049-4.400024,39.800049-3.599976,4.099976-13,5.699951-17.699951,8.900024-2.900024,2-13.099976,13-14.199951,16.099976-2.800049,7.900024,4.199951,11.199951,4.5,18.599976.699951,15.5-5.599976,19.400024-19.400024,22.400024-1.300049,5.900024,1.400024,13.699951-1.199951,19.199951-.599976,1.300049-15.099976,21.800049-16.800049,24-10.400024,12.699951-24.5,20.300049-40.400024,23.599976-8.099976,1.599976-18.300049.400024-26.699951,3.5-12.5-4-9.699951-15.900024-13-25.199951-4.699951-13.300049-14.699951-22.099976-18.099976-29.800049-3.800049-8.300049-2.900024-25-6.599976-36.099976-2.800049-8.699951-14.800049-25.800049-15.699951-32.300049-.300049-2.300049,2.699951-24.5,3.599976-27.599976,1.199951-4.400024,5.400024-7.199951,6.300049-11.400024,1.800049-8-5.800049-45.800049-9.400024-53.800049-3.300049-7.5-16.800049-16.800049-18.400024-24.400024-2-10,7.199951-24.5,1.300049-34.900024-4.800049-8.5-14-2.300049-21.099976-5.599976-3.800049-1.699951-9.900024-12.099976-13.699951-13-7.5,1.400024-15.199951,1.300049-22.599976,3.400024-5.699951,1.599976-11,6.099976-16.199951,6.900024-7.199951,1.099976-12.800049-2.099976-19.300049-1.800049s-12.599976,5.599976-17.900024,5.599976c-3.199951,0-25.599976-14.099976-29.199951-17.099976-13.300049-11.099976-23.099976-39.799988-35.400024-53.400024-.599976-2.799988,8.199951-16,8.5-21.200012.599976-8.299988-7.699951-20.900024-7.099976-30,15.300049-21,20.699951-47.200012,46.099976-58.900024l4.599976-25.599976c10.800049-8.200012,20.599976-11,22.199951-26.599976,4.5-1.5,7.300049,3.700012,10.400024,4.400024.699951.200012,14,.5,15.099976.400024,5.400024-.5,23.699951-13.5,34.400024-15.099976,6.900024-1,11.400024,1.799988,15.5,1.299988,6-.599976,14.699951-1.099976,19.5-1.700012s10.400024-7.599976,17.099976-.700012c-4.099976,6.099976.800049,14.400024-.400024,18.900024-.800049,3-7.699951,6.200012-6,8.400024,7.699951,9.400024,25.900024,9,33.400024,14.099976,2.5,1.700012,3.300049,6.299988,7.699951,8.700012,2.699951,1.5,21.900024,8.400024,23.599976,7.200012.199951-14.599976,2.699951-23.299988,20.199951-19.400024,1.400024.299988,1.400024,3.099976,3.400024,4,11.099976,5.099976,29.099976,12.200012,41.199951,10,2.800049-.5,4.900024-3.299988,7.300049-3.5,4-.400024,8.5,5.299988,17.599976,3.599976,12.400024-2.400024,19.300049-38.5,16.900024-49.700012-3.300049,2.599976-7.199951-.5-9.5,0-2,.299988-.599976,5.299988-7.400024,5.599976-7.199951.400024-10.900024-6.900024-17.5-5.599976-1.400024.299988-.400024,3.5-3.800049,3.799988-15.699951,1.400024-26.599976-14.700012-22.300049-28.599976h-5.300049l2.800049-10.700012c-2.699951-5.200012-25.099976-7.200012-26-2.400024,2.199951,8.5,2.400024,18.799988,8.800049,24.900024l-5.099976,13.700012-4.400024,1.200012c-7.800049-6.200012-4.699951-9.700012-6.599976-16.5-1.199951-4.200012-11.699951-16.799988-12.800049-20.700012-1.199951-4.200012,3.099976-10-1.199951-16.799988-5-7.900024-18.5-10.900024-23.900024-15.200012-7.300049-5.900024-6.099976-25.099976-22.099976-17.799988,1.300049,3.700012,1,9.200012,2.800049,12.299988.699951,1.299988,3.599976,1.700012,4.400024,3.099976,4.300049,8,4.300049,13.099976,12.900024,18.599976s2.800049,1.900024,6.5,5.700012c4.199951,4.400024,15.699951,6.200012,14.300049,15.200012l-8-1.799988.599976,12.099976c-4.400024.900024-5.199951,5.400024-7.699951,7.599976-1.5,1.299988-4.599976,0-5.400024,1.5-2.199951,3.900024-.800049,8.900024.900024,12.599976-8.800049,1.700012-9.5-8.599976-19.5-9.700012,1.900024-4.599976,24.199951-.700012,24.199951-14.200012,0-4.799988-10.5-15.599976-14.400024-18.700012-8.900024-7-14.900024-7.5-23-19.700012-3.400024-5.099976-2.5-14.099976-10.800049-14.200012-9.5,0-14,11.599976-18.099976,12.299988-2.300049.400024-5.5-2.900024-8.699951-3.299988-12.300049-1.200012-8.699951,13.099976-12.300049,17.799988-1.599976,2-6.599976,1.599976-10,4.200012-1.400024,1.099976-8.400024,12.099976-9.099976,14-2.300049,6.299988,0,12.400024-2.300049,17.200012-.699951,1.5-12,10.400024-13.800049,11.099976-5.099976,2-9.300049.799988-14.199951,1.700012-5.900024,1.099976-13.599976,9.299988-11.900024-4l-19.5,1.799988c-.900024-.900024,3.199951-9.5,3.099976-11.900024,0-2.700012-3.099976-4.299988-3.099976-8.299988,0-9.099976,2.099976-16.099976,1.599976-28.599976-.300049-6.900024,3.699951-11.599976-1.599976-16.900024,5.800049-1.099976,11.400024,1.799988,16.900024,1.900024,4.099976,0,7.699951-2,12.199951-1.799988,5.400024.200012,21.599976,7,25.199951,1.799988,1.199951-1.700012-.400024-24.799988-1.300049-27.400024-.900024-2.799988-5.099976-3.299988-6.900024-5.5-1.900024-2.400024-1.900024-6-4.300049-8.200012-2.599976-2.299988-8.199951-2.400024-9.5-3.700012-.300049-.400024.300049-6.200012-3.900024-8.599976,6.199951-1.5,16.400024,4.200012,20.400024-1.900024,1.099976-1.700012.699951-5,1-5.200012.800049-.799988,8.599976,3.900024,12.5,1,1.599976-1.099976,1.099976-4.599976,2.099976-5.799988,1.400024-1.799988,6.199951-1.599976,7.699951-4,1.099976-1.799988-.800049-4.400024-.5-6,1.400024-6.5,12.199951-3.799988,17-6.700012l4.5-19.5,26.900024-8.599976c-2.599976-17.299988-17.599976-45.799988,11.400024-44.5.699951,13.200012-9.800049,20.299988-6.199951,33.799988,3.599976,13.900024,11.099976,9.200012,21.300049,10.700012,3.099976.5,5.199951,4.200012,8.599976,3.299988,2.400024-.599976,4.900024-5.299988,8.300049-6.200012,4.300049-1.099976,12.400024,2,20.400024-.900024,6.599976-2.299988,8.300049-9.200012,17-7,1.599976-1.5-5.199951-21.799988,2.900024-28.299988,5.900024-4.799988,7.900024,8.900024,16.699951,7l3.400024-14c-5.900024-1.900024-9.900024-7.200012-12.300049-12.700012,9.900024-3.5,23.699951.099976,32.5-1.799988,1.199951-.299988,6.699951-9.599976,15.400024-3.5,0-3-5.900024-3.400024-8-3.5-12.800049-1.099976-38.599976,6.700012-46.099976-3.599976-5.099976-7-.5-9.400024-1.300049-14.700012-.400024-2.799988-4-5.099976-3-8.900024,1.099976-4.400024,11.599976-10.099976,15-13.599976,4.099976-4.299988,3.599976-11.700012,11.400024-10.799988,5-5.5-24.800049-26.5-28.099976-4-.599976,4.400024,3.099976,6.900024,3.300049,10.400024.5,8-19,11.900024-23.099976,23-1.5,4-2.800049,11.599976-1.5,15.599976,1.5,4.900024,12.199951,6.200012,10.199951,12.599976-.699951,2.200012-11.599976,6.5-14.900024,11.799988-3.699951,5.799988-2.800049,13.200012-5.5,17.599976-1.699951,2.799988-5.199951,3.200012-6.900024,5.5-2.900024,3.900024-1.300049,11.400024-9,10.700012l-3.599976-1.799988c0-11-7.800049-18.099976-11.900024-27.200012-2.699951-5.900024-2.400024-13.5-6.699951-19-3.300049,1.700012-3.800049,7.200012-6.300049,10.5-6,8.200012-17.400024,14.099976-26.599976,7.299988v-39.099976l23.199951-16c28.400024-22.299988,35-61.100006,63.900024-83.5,9.599976-7.399994,24.199951-10.399994,31.699951-16.200012,7.099976-5.5,6.599976-13.700012,20.699951-10.399994l-8.900024,12.399994c11.800049-12.200012,24.5-11.399994,37.199951-.899994-3.599976,4.299988-8.900024,4.799988-14.199951,4.5,8.300049,14.600006,18.5-.600006,30.199951,5.299988-.199951,3.5-5.599976.799988-8.900024,2.600006-3.099976,1.700012-.800049,3,1.199951,4.200012,8.599976,5.700012,18.900024,4.299988,27.800049,7.700012,10,3.899994,17.300049,15.200012,31.199951,14,3.199951,39.200012-34.199951,17.799988-54.900024,12.299988,2.5,5.100006,10,8.600006,11.599976,14.100006,2.199951,7.100006-1.400024,20.399994.900024,23.800018,3.800049,5.700012,18,9.700012,22.900024,3.799988-3.199951-3.5-8.099976-6-7.099976-11.5h17.800049c-2.5-4.299988,4.599976-13.799988,8.199951-15.799988,7-4,16.699951.299988,21.199951-3.700012,8.699951-7.799988-6.699951-17-6.099976-20.200012l8.099976-8.100006,7.699951,6.100006-7.099976,2.600006c1,24.600006,28.400024-.899994,39.099976-6.299988,19.599976-9.899994,15.5-2.200012,31.099976-2.5,8.599976-.100006,16.300049-5.200012,24.900024-5.5l.900024,5.299988c5.900024.600006,11.699951-2.200012,15.900024-6.200012l-8.800049-8.899994c18.300049-14.5,43.099976,10.899994,55.900024,23.899994,9.699951-10.899994-4.199951-18.899994-7-24.899994-1.300049-2.799988-.800049-6.100006-1.800049-8.899994-.900024-2.5-3.599976-4.5-4.199951-6.600006-2-7.5,6.599976-12.299988,9.300049-18.399994,2.5-5.600006,1.699951-14.100006,7.199951-17.700012,6.300049-4.100006,14.800049,1.899994,22.300049.100006,2,1.799988-6.800049,21.700012-7,25.899994-.199951,5.100006,3.199951,11.5,3.5,17.600006.300049,7.100006-3.099976,13.600006.099976,19.299988,3.699951,6.600006,9.800049,5.299988,8.300049,15.799988-1.699951,12.200012-17.400024,16.100006-28.099976,15.600006.300049,2.5,6.300049,4.200012,8.400024,4.899994,2.699951.799988,5.400024,2.599976,8.400024,2.200012,2.300049-.200012,18.599976-13.700012,19.599976-16.100006,2.400024-5.399994-3.699951-8.399994-2.5-12.899994,2.199951-3.899994,7.5-7.799988,12.199951-5.700012,4.199951,1.899994,7,9.299988,10.699951,11.600006.199951-4.799988-4-13.600006-7.800049-16.100006-5.5-3.5-15,.799988-16.800049-4.600006-1.599976-4.799988,1.5-14.899994,1.699951-21.100006.099976-5-2.300049-9.799988-1.900024-14,.5-5.600006,6.900024-9.399994,7.099976-15.200012,3.099976-.5,1.900024,4.200012,1.800049,6.200012-.400024,5-3.900024,10.899994,1.199951,15.200012h13l-8.800049-6.299988c12.099976-14.700012,29.300049,2.200012,44.400024.899994.400024-7.5-7-12.799988-13.900024-12.700012l-3.900024-19.200012c13.900024-1.600006,32,2.100006,45.300049,0h.099976l-.300171.200287ZM1357.355705,502.755412c-6.699951-1.400024-30.099976,3.799988-28.5,13.299988l7.800049,4.299988,1.099976,3.700012c-4.800049.5-13.800049,9.900024-17.900024,6.400024-2.300049-2,.199951-8.299988-7-6.400024-1.5-5.5,7.900024-3.799988,7.099976-10.599976l-12.400024-1.799988,5.300049-3.5c-17.300049-2.599976-14.300049,8.400024-18.699951,17.599976-.900024,1.799988-3.400024,3.099976-4.099976,4.799988-1.300049,2.900024-7.099976,14.700012-7.300049,15.799988-2.099976,10.599976,4.599976,10.5,7.099976,18.599976-6.5-1-11.300049,1.099976-14.199951,7.099976l19.5-3.599976-3.5-5.299988c4.400024-.599976,10.800049,1.099976,14.800049-.299988,3.199951-1.099976,3.5-8,12.900024-8.5,14-.799988,35.5,20.900024,53.599976,6.799988,5.199951-8.5-9.699951-20.799988-15.800049-25.400024-3.800049-2.799988-15.800049-7.200012-17.599976-10.799988-2-3.900024,6.5-3.200012,8.400024-5,.800049-.700012.099976-5,4.099976-5.700012l-3.599976-6.200012c1.199951-1.099976,10.699951.599976,8.900024-5.299988h0l-.000122.000061ZM1447.855705,506.355387c-5.800049,2.5-11.400024-.299988-16.400024.299988-11.5,1.400024-17.099976,18.299988-26.199951,23.700012,9,5.099976,6,18.200012,10.5,24.5,2.099976,3,11.5,4,12,7.299988l-9.400024,34.799988c12.099976,7.599976,24.099976,10.200012,38.300049,8.799988l-9-34.599976,8.800049-5.200012-4.300049-8.200012-6.199951,3.599976v-13.099976c-9.199951-2.099976-8.800049-10.5-12.599976-17.900024l3.5-1.700012-1.699951-6.299988,21.300049,1.799988c-.099976-3.099976-4.5-2.099976-6.199951-5.299988-1.599976-3.099976-1.199951-8.799988-2.699951-12.400024h0l.299683-.099915Z"/>
    <path class="cls-1" d="M270.25576,483.255412c2.299988,1.299988,5.100006,1.599976,5.299988,1.799988,1.799988,1.5,4,6.599976,5.299988,8.900024-6.700012,5-34.100006-12.299988-30.200012-16,4.600006,0,7.600006,3.799988,12,4.900024,2.700012.700012,5.799988,0,7.5.400024h0l.100037-.000061Z"/>
    <path class="cls-1" d="M270.25576,483.255412c-4.100006-2.299988-9.799988-3.400024-12.5-6.099976s-15-20.400024-15.700012-21.599976c-2.100006-3.799988-2.200012-10.799988-4.600006-13.200012-3.100006-3.099976-8.200012-.599976-11.600006-2.599976-1.399994-.799988-4.299988-6.599976-7-9-10.899994-9.400024-10.899994-11.200012-19.600006-21.200012-8-9.200012-26.600006-15.5-38.600006-18.299988-5-1.099976-10.199997.400024-15.100006-.799988-4.399994-1.099976-9.199997-8.099976-14.699997-8.400024-4.800003,0-21,28.099976-32.800003,24.799988-1.699997-11.599976,5.399994-13.200012,10.600006-18.700012,1.5-1.599976.399994-4,1.699997-5.200012,2.399994-2.099976,7-1.400024,7.199997-4.5-11.300003,1.400024-22.300003,13-28.100006,22.5-1.899994,3.200012-1.699997,7.099976-3.800003,10.400024-6.199997,10.099976-32.199997,27.900024-43.300003,33.099976l-31.400002,12.099976c16.400002-18.799988,45.200005-17,53.299995-45.299988l-32,.900024v-8.900024c-15.599998,1.900024-22.5-3.200012-23-18.900024-.199997-7.5,3-8.799988,8.699997-12.200012,10.199997-6.099976,28.199997-4.200012,17.800003-17.700012,6.199997-1.299988,4.099998-6.599976-1.800003-5.5-9.5,1.700012-15.699997,8.700012-27.400002,6.5l-4.5-11.5c.300003-1.5,11.800003-7.599976,13.599998-7.700012,5.800003-.5,13.800003,9.900024,23.699997-3.099976-3.900002-7.799988-11-4.700012-16-7.099976-3.599998-1.700012-5.800003-11.900024-12.400002-11.599976v-2.599976c8.699997-6.200012,15-19.100006,23.200005-24.799988,2.699997-1.799988,28.899994-14.299988,31.399994-14.899994,1.300003-.299988,26.300003,1.399994,27.600006,1.799988,3.5,1,4.399994,5.799988,9.300003,6.700012,24.300003,4.700012,55.300003-1.299988,80.800003,4.399994,6.399994,1.5,17.5,9.200012,22.600006,4.100006,1.700012-1.700012.899994-5.299988,3.399994-6.899994,2.299988-1.5,7.299988.5,11.200012-.5,7.100006-1.899994,15.100006-10.700012,22.299988-11.700012,3.399994-.5,3.799988,2.299988,2.600006,3.5-1.299988,1.399994-14.600006,5.100006-16,8.899994,11.200012-3.399994,21.600006-6.899994,27.5-17.700012l14.200012,14.100006,2.700012-5.299988c4.399994-1.700012,4.600006,5.100006,6.100006,5.200012,5.700012.100006,7.399994-6.799988,10.600006-6.899994,4.799988-.200012,19.899994,6.100006,26.200012,7.600006,5.299988,1.299988,29.700012,2.899994,28.100006,9.200012l-8.899994,6.200012c5.799988-.5,11.100006,2,16.899994,2,18.399994-.299988,23.899994-10.399994,35.5,12.299988,2.200012-7,.600006-16.600006-4.399994-22.200012,4.600006-4.299988,12-7.799988,18.200012-5.899994,2.799988.899994,4.600006,4.799988,7.899994,6.399994,10.899994,5.399994,23.100006,3.799988,34.800018,4l6.5-9.899994,12.400024,1-1.599976,9.5,6.900024,4.699982c-4-13.700012,6.700012-10,9.799988-16,4.200012-8-3.900024-6.399994-2.700012-9.799988l5.299988-6.200012c-11.5-1.200012-15.400024.200012-17.299988-12-2.400024-15.399994,4.099976-12.799988,4.900024-15.899994,1.700012-6.700012-1.599976-16.5-1.5-22.700012.299988-17,13.900024-24.799988,29.799988-22.200012l-7,18.799988-13.900024,5.100006-.400024,15.100006c5.5-2,14.5,16.100006,15.099976,19.399994.700012,3.899994-2.900024,7-2.700012,10.799988,16-1.5,9.099976,10.299988,15.099976,19.5l6.099976-15.200012c17-2,3.799988,16,6.200012,20.5,2.099976,3.899994,11,5.600006,15.200012,5.299988-4.200012-8.5,5.900024-9.100006,1.599976-18.299988,11.799988-3.299988-4.099976-16.200012,6.299988-17.200012,8.5-.899994,27.700012,5.899994,22,17.700012l-5.099976.200012c-1.900024,8.399994,8,12.899994,3.599976,20.399994-6.299988,10.899994-21.400024,9.300018-32.099976,7.899994-1.599976,5.299988,5.799988,2.200012,3.5,8-2.200012,5.400024-26.099976,2.099976-32,.900024,5.200012,6.799988,15.799988,9.299988,24,8.900024,7-.700012-3.700012,13-5.700012,13.799988-7.700012,3.099976-20.599976,4.200012-28.900024,4,0,3.5,13.299988,1.299988,10.599976,6.200012-1.599976,3-7,2.299988-9.900024,4.400024-9.400024,6.700012-16.900024,29.599976-18.599976,41,16.900024-1.599976,16.799988,13.299988,25.700012,22.900024,14.5-11.700012,26.5,8.200012,36.5,11.700012,6.5,2.299988,15.099976.400024,21.299988,5.400024l3.400024,24c8.299988-.299988,15.900024-.700012,16,9.5,15.299988,4.299988,3-24.900024,3.900024-31.299988,1.299988-9.299988,10.799988-7.299988,13-10.099976,1.200012-1.5,2.799988-10.900024,2.799988-13.400024,0-10.5-8.700012-18.400024-9.099976-23.200012-.299988-3.799988,3.299988-5.700012,3.299988-8.400024,0-2.200012-2.5-5.200012-2.799988-7.799988-.599976-6.799988.700012-13.799988-2.200012-20h31.099976c2.5,0,19.700012,17.200012,27.5,14.200012l-3.400024,18.400024c.5,1.900024,15,9.5,17.099976,9.799988,6.900024.900024,4.299988-4,6.299988-6.400024,1.5-1.799988,5.700012-1.400024,6.400024-2.5,1.299988-2.099976-.900024-12.799988,7.400024-13.099976,1.599976.700012,17,28.700012,17.5,30.700012.900024,3.900024-2,7.400024-1.299988,9.900024.900024,3.099976,11.5,5.200012,6.900024,13.599976,7.5-.299988,16.200012-.299988,21.299988,6.200012,1.299988,3.299988-8.5,4.200012-11.299988,6.400024s-3.400024,3.099976-2.900024,6.900024c4-6.299988,26-8.299988,26.200012.5.599976,22-8.799988,15.799988-20.799988,21.900024-4.200012,2.099976-7.400024,8.200012-13.900024,9.299988-4.5.799988-7.400024-1.400024-10.200012-1.099976-5.200012.5-24.299988,2.400024-27.599976,4.099976-3.5,1.799988-2.700012,6.299988-4,7.599976-2.5,2.400024-19.400024,5.900024-16.400024,16.400024,6.200012-3.5,23-19.200012,29.799988-17.5l6.400024,7.5-10.5,7.400024c7.400024,3.799988,3.700012,16.400024,12.400024,16.900024l-.900024-7.099976c3,4.099976,6.299988,6,11.599976,5.299988,1.799988,7.200012-8.099976.599976-8.900024,5.299988l13.099976,1.700012,2-1.599976c1.099976-4.700012,1.700012-10.900024,8-10.700012.200012,19.5-15,19.5-26.5,25.900024-3.299988,1.799988-4.799988,6-8.5,7.5-1.900024.799988-6.799988,1.799988-5.799988-2.299988,5.599976-6,8-12.900024,17.799988-11.599976,1.599976-3.900024-4.099976-4.900024-6.599976-4.799988-2.299988.099976-11.200012,3.900024-13.5,5.200012s-2.799988,4.200012-4.200012,5c-4.299988,2.5-11.700012,3-15.700012,7-6.5,6.599976-3.200012,19.599976-4.599976,21.099976-1.799988,2.099976-17.700012,6.799988-20.299988,9-3.900024,3.400024-4.700012,14.700012-6.099976,16.099976-3.799988,3.599976-2.799988-4.5-5.299988-3.5,2.200012,7,3.400024,14-2.700012,19.5l-4.400024-17.700012c-3.700012,9.900024,4.099976,18.700012-1.599976,29.400024l3.5,1.799988-2.200012,8.400024c-9.900024,8.200012-31.200012,19.5-33.099976,32.700012-2.200012,15.299988,13.200012,29.400024,6.700012,44.799988-14.200012-2.299988-12-20.5-15-30.299988-3.5-11.200012-23.299988-7.299988-32.099976-7.400024-1.200012,0-18.599976-3.599976-14.200012,2.200012,1.200012,1.5,7.299988,1.200012,3.5,5.299988-9.900024,1.400024-20.900024-6.799988-30-5.299988-3.5.5-23.5,14.599976-25,17.799988-3.299988,7.200012,4.5,9.700012,4.099976,14.799988-.400024,4.200012-7.400024,12-8.200012,16.700012-1.5,9,16.200012,33.599976,25.5,34.099976,5.5.299988,12.200012-4.400024,18.5,0l8.299988-21.5,22-.799988c2.799988,2.099976,1,2,.299988,3.900024-1.200012,3.299988-3,9.799988-4,11.599976-1.099976,2.299988-4.299988,2.099976-5,4.299988-1.200012,3.599976.700012,8.5-.5,12-1.099976,3.299988-6.799988,1.400024-5.099976,6.400024,21,3.799988,41.099976-7.200012,37.299988,22.299988-1.599976,12.200012-10.099976,16.200012,7.599976,24.200012,13.5,6.099976,14.5-1.599976,25-.300049,5.200012.699951,6.900024,5.099976,11.700012,5.300049.799988-14.900024,20-23.599976,33.099976-24.200012,7.900024-.400024,61.299988,10.5,66.200012,14.600037,9.200012,7.699951,14.799988,19.099976,27.599976,25.699951,8.900024,4.599976,21.900024,4.099976,28.5,8.800049,5.599976,4,5,10.5,8.799988,14.300049s10.599976,4.099976,15.200012,9.699951c3.599976,4.300049,3.900024,9.699951,6.299988,13.199951,4.700012,6.800049,41.400024,14.099976,52.299988,18.800049,11.900024,5.199951,20.099976,15.599976,33.799988,13.300049-2.799988,6.599976,3.400024,14.599976,3.400024,18.699951,0,6.400024-16.200012,24.199951-22,27.599976-2.299988,1.300049-6.099976,1.400024-6.299988,1.699951-.599976.699951,1.700012,4.400024,1.599976,6.300049-.200012,3.300049-3,5.699951-3.299988,8.900024-.5,6.300049,1.400024,35.800049-2.099976,37.800049-1.700012,1-6.700012-.5-10.400024,1.199951-6.400024,2.800049-10.299988,15.199951-15.900024,19.599976-4.700012,3.699951-11.5,4.800049-16.700012,8.199951-16.900024,11.199951-12.299988,26.599976-21.700012,40.400024-4.700012,6.900024-15.200012,14.699951-21.200012,21.400024-8.700012,9.599976-12.900024,26.199951-29.299988,19.599976-2.400024,2.199951,9.200012,6-1.799988,15.099976-10,8.300049-20.299988,1.900024-21.299988,2.699951-.400024.300049-1.299988,6.099976-4.5,8.900024s-7.5,2.800049-10.900024,5.199951l6.400024,17.800049-16-1.800049c-.299988,14.099976-14.200012,28.800049-12.400024,41.699951.5,3.099976,3.599976,6.599976,3.200012,8.699951-.799988,4-22.700012,20.5-22.900024,28.599976-.099976,3.800049,4.799988,24.099976,7.200012,26.699951,1.200012,1.199951,18.599976,9.900024,21.200012,10.800049,3.599976,1.199951,9.900024-.699951,10.700012,2.599976-16.400024,3.099976-27.400024,7-43.200012-.300049-42.5-19.699951-38.599976-58.199951-33-98,6.5-46.199951,20.400024-93.199951,27.700012-139.300049,1.799988-11.099976,5.200012-28,4-38.599976-2.5-23.599976-14.700012-22.300049-29.299988-34.699951-14.900024-12.599976-18.5-27.199951-27.299988-43.800049-4.900024-9.300049-16.200012-22.199951-17.700012-32.099976-2.5-17.400024,19.599976-42.099976,27.700012-56.800049,0-11.599976-7.200012-46-19.5-22l-2.299988.300049c-8.400024-5.699951-25.900024-8.099976-31.200012-16.900024-3.099976-5-1.799988-8.599976-7-14.299988-11.900024-13.400024-26.099976-12.299988-39.200012-19.400024-5.799988-3.099976-11.900024-11.599976-17.200012-13s-10.700012,0-16.5-1.200012c-9.200012-2.099976-38-11.900024-45.200012-16.900024-11.399994-8-5.399994-15.200012-8.899994-23.099976-1.600006-3.5-18-17.5-22.200012-22.200012-3.600006-4-16-16.900024-17.799988-19.5-6.399994-9.5-5.399994-23.099976-20.399994-29.299988-2.399994,1.200012.299988,4.5.899994,6.200012,2.200012,6.200012,6,15.299988,9.200012,21,6.200012,11.299988,16.100006,18,19.299988,30.400024-8.100006,7.799988-12.799988-10.200012-16.799988-15.099976-4.700012-5.799988-13.600006-9.299988-18.700012-15l7.100006-1.799988c-12.200012-10.099976-12-29.599976-23.5-38.700012-5.5-4.299988-15.399994-5.599976-18.200012-8.5-3.700012-3.799988-3.899994-13.799988-5.899994-19-6-15.5-14.899994-18.400024-16.299988-38.700012-1.5-20.799988,10.399994-39.5,2.600006-59.5-1.700012-4.400024-6.200012-7.5-6.200012-12.400024,2.200012-2,16.399994,5,14.200012-.900024s-8.399994-9.700012-14.200012-11.599976c-1.799988-.599976-3.299988-1.200012-5.299988-1.799988h0l1.200165-.100037Z"/>
    <path class="cls-1" d="M955.855705,14.355387c-4.099976,10.600006-15.900024,12.399994-10.599976,26.600006l51.099976-13.800003c8.099976,1.199997,19.800049,2,25.300049,8.399994-6.699951,1.300003-19.599976,7.400009-24.800049,11.599991-3.800049,3.100006-7.900024,9.899994-12.5,14.200012-9.800049,9.200012-25.400024,14.799988-18.199951,32.399994,1.699951,4.200012,10.5,9.899994,11,12.100006,1,4.399994-6.900024,4.600006-8.900024,7.299988-7.5,10.299988-.099976,16.799988,1.5,25,.800049,4.100006,0,8.100006.5,11.899994.900024,5,3.599976,8.700012,3.5,14.299988-.099976,9.5-11.300049,12-15.800049,19.799988-2.800049,4.799988-9.599976,26.399994-9.099976,31.5.699951,7.5,8.199951,16.200012,4.400024,24.200012-1.099976,2.200012-33.799988,19.5-38.799988,21.600006-20.299988,8.600006-36.400024,5.899994-43.299988,31.799988l-36.099976,13.200012c-4.599976,9.099976-12.599976,56.900024-19.5,60.400024-7.900024,4-27.799988-4.900024-36.099976-7.900024-5.599976-13.799988-15.5-25.5-22.299988-38.5-7-13.400024-16.700012-33.5-11.900024-48.700012,3.299988-10.5,22-9.100006,18.400024-25.299988-.799988-3.799988-6.5-10.399994-10.200012-11.100006-4.400024-1-11.200012,9-13.5,4.600006,1.900024-8.200012-5.5-16-6.200012-20.600006-.799988-6,4.299988-10.799988,3.200012-17.200012-.700012-4.299988-20.200012-47-23-49.899994-3.900024-4.200012-7.799988-5.100006-13.200012-6.299988-27.700012-6-57.400024,4.299988-78-19.700012-3.200012-3.799988-9.400024-11.600006-7.799988-16.600006,2.599976-8.100006,57.299988-14.799988,56.700012-34.899994-2.799988.600006-19.5-2.399994-16-7.100006,15.700012-5,29-17.700012,43.200012-25.200012,14.700012-7.800003,59.900024-17.600006,76.299988-15.300003,4.5.699997,26.900024,9.399994,28,8.399994-1.099976-9.399994-11.5-10.199997-17.299988-13.800003-1.799988-1.100006-3.099976,0-2.299988-4,8.799988-1.5,16.700012-6.300003,25.799988-7.100006s25.299988,3.699997,31.700012,1.5c2.700012-.899994,3.700012-5.600006,6.5-7.699997,3.900024-3,36.400024-4.800003,43.5-4.399994,20.299988,1.199997,44.5,10.800003,64.899963,14.199997h0l-.100098.100067Z"/>
    <path class="cls-1" d="M2047.055656,958.755412c2.399902,1.900024,5.5,1.699951,8.199951,2.5,1.199951,1.400024-.600098,9.699951.100098,12.800049.5,2.099976,5.699951,2,6.800049,6s-.899902,9.599976,1.199951,13,12.399902,3,16.699951,10c1.399902,2.199951,1.399902,6.099976,2.399902,7.300049,1.600098,1.900024,6.699951,1.199951,8.100098,2.599976s.899902,7.199951,2.699951,9.800049,10.5,4.599976,12,7c7.100098,11.099976,2.5,41.900024-2.800049,53.900024-2.600098,5.800049-8.600098,10.800049-10.699951,17.699951-1.399902,4.599976-.300049,9.099976-2.199951,13.800049-3.399902,8.5-24.300049,16.800049-33,14.599976-1.399902-.300049-1.199951-3.5-2.300049-3.599976-3.399902-.5-6.899902,3-10.600098,3.599976-8.300049,1.300049-16.600098-1.5-22.100098-7.900024-3.899902-4.5-11-15.099976-12.399902-20.5l-5.300049,1.800049,3.5-12.400024c-19.399902,15.400024-12,6.099976-25.699951-1.800049-8.300049-4.800049-26.199951-7.5-35.199951-4.900024-2.800049.800049-4.800049,4.900024-8.300049,5.900024s-6.099976-1.099976-12.300049,1.900024c-6.800049,3.199951-9.199951,10.099976-13.099976,11.800049-4.699951,2.199951-10.400024.800049-15.699951,2.099976-14.300049,3.599976-29.699951,20.699951-40.599976.300049,8.300049-5.800049,4.5-20.199951,1.800049-28.800049-2.199951-6.699951-9.599976-14.800049-10.5-19.900024-.699951-4.400024,1.800049-8.900024,1.699951-13.800049-.199951-5.599976-3.400024-14.900024-2.099976-19.400024.5-1.800049,3.699951-.5,4.800049-1.5,9.599976-8.199951,10.099976-11.800049,24.199951-17.599976,5.599976-2.300049,17.400024-3.300049,21.300049-6.599976,2.400024-2,2.699951-10.699951,6.5-15.300049,1.300049-1.599976,25.199951-20.699951,26.800049-21.300049,8.400024-2.900024,12.699951,5.900024,21.099976,4.400024,1.599976-13.900024,5.099976-18,19.600098-15.900024v-7.099976c6,.400024,12.5-.599976,18.5.199951,19.600098,2.699951,2.899902,9.800049,1.399902,18.900024-1.699951,10.199951,12,9.599976,19.100098,13.900024,4,2.400024,6.600098,7.900024,11.699951,9.300049,14.300049-10.400024,6.699951-21.800049,7.899902-34.300049.300049-3,4-14.199951,8-9.699951,3.399902,3.900024,5,14.300049,8.5,17.199951h.300049Z"/>
    <path class="cls-1" d="M671.655754,46.255381c-11.599976,11.100006-28.200012,21.799988-44.400024,24.899994l5.299988,4.399994c-7.400024,8.700012-18.700012,14.600006-30.200012,15.100006,4.599976,8.399994,1,18-7.599976,21.700012-3.599976,1.600006-8.200012.5-11.099976,3.100006-2.700012,2.399994-4.5,12-8,15.100006,21.400024,10.700012,4.400024,17.899994-9.799988,22.200012l-2.5-6.399994-2.799988-.899994c-12.599976,4.299988-31.200012,5.299988-44.5,3.799988-2.799988-.299988-6.299988-.5-6.099976-4.5l14.200012-8c1.099976-5-8.700012-6.799988-3.599976-11.600006,7.700012-5,19.200012,8.399994,26.700012,0l-24.799988-6.299988c-.400024-14.399994,16.599976-18.899994,28.400024-14.200012-4.900024-8.100006-14-13.399994-20.400024-19.5-1.700012-1.700012-3.400024-2.299988-2.700012-5.299988,18.5-2.200012,39.599976-5.899994,53.299988-19.5l-44.400024,12.399994,3.5-5.299988c-15,3-40.299988,4.700012-44.400024-14.200012,1.299988-1.899994,41-12.299988,43.599976-12.200012,6.400024.200012,22.400024,9.399994,31,8.600006l-21.299988-8.899994c-5.200012-7.699997,22.900024-12.100006,27.5-12.399994,6.200012-.399994,10.900024.199997,16.799988,1.699997l-7.099976-7.100006c13.299988,1.600006,27.299988-1.5,39.900024-1.899994,8.400024-.300003,11.200012,2.899994,17.700012,3.699997,7,.899994,46-.600006,48.900024,6.199997l-16.299988,8.500015-29.799988,6.600006h24.900024l.099854.199951Z"/>
    <path class="cls-1" d="M643.25573,266.5554l25.400024,12.700012,20.599976,7.899994c.299988,4.799988-5.700012,28.600006-9.599976,29.000031l-21.700012-22.799988c-4.299988-1.100006-8.5,4.900024-10.900024,8.099976-2,10.700012,24,22.900024,24.599976,25,1.400024,5,0,14.799988-4.5,18.299988-1.799988-3.099976-16.299988-12.5-18.700012-10.599976l14.200012,17.700012c-13.5.700012-24.700012-7.799988-37.299988-10.700012l3.5-7c-6.099976.599976-9.900024-7.400024-13.700012-8.599976-8.900024-2.700012-21.5,7.299988-31.5,1.700012l-.900024-9c14.900024-2.900024,34.400024.400024,40-17.799988,6-19.799988-6.099976-18.399994-17-29.399994-6.200012-6.200012-16.900024-23.899994-26.099976-25.399994-2.099976-.399994-17.799988,6.399994-23.700012,3.200012l.200012,4.5c-10.299988,2.700012-50.700012.799988-50.799988-13.600006,0-5,8.700012-37.600006,11.5-41.200012,4.5-5.899994,25.599976-6.200012,32.200012-4s11.900024,17.899994,18.799988,22c9.099976-1.700012,23.700012-10,32.599976-5.899994,3.799988,1.799988,8.900024,10.600006,13.599976,13.100006,6.099976,3.200012,13.099976,2.200012,20.099976,6.5,4.700012,2.899994,20.900024,17.700012,24,22.299988,1.299988,1.899994,3.599976,4,1.200012,6.100006l-16.099976,8h0l.000061-.100098Z"/>
    <path class="cls-1" d="M431.455742,258.0554c1.799988,1.799988,2.299988,5.899994,2.200012,8.399994-2.099976-.700012-3.799988-1.899994-6.200012-1.899994-9.5.200012-13,8-.899994,3.600006l1.799988,7.100006c-9.799988,4.799988-19,1.899994-28.899994-1.899994-1.600006-.600006-.799988-4-3.899994-3.5-4.100006.600006-5.200012,4.5-8.200012,6.200012-10.600006,5.700012-22.399994,8.299988-34.299988,9.799988-3.100006-1-2.5-6.600006-4.600006-8-3.700012-2.5-25.399994.899994-26.700012-11.399994,11.399994-4.899994,22.799988-2.600006,34.399994-3.799988,1.799988-.200012,8.399994-.700012,8.200012-3.299988-6.700012-.5-13.700012-3.5-20.399994-3.700012-9.200012-.200012-21.299988,6.299988-27.5-3.399994l10.600006-4.5c-18.200012-5.899994-12.600006-13.799988-.799988-24,8-6.899994,26.5-16.200012,16.799988,1.700012l18.299988-3.700012c4.5,11,11,1.200012,16.100006,2.200012s6.200012,10.700012,11.799988,10.299988c1.200012-6.399994-1.700012-12.600006-1.799988-18.600006,0-2.899994-.399994-3,2.700012-2.700012,5.399994.600006,10.299988,3.5,13.100006,8.200012,4.100006,6.700012,5.5,21,8.299988,25.5,2,3.299988,17.399994,8.5,20.000031,11.100006h0l-.100037.299957Z"/>
    <path class="cls-1" d="M1071.355705,371.355387l-7.099976,12.400024c6.199951.700012,13.099976-5,17.699951.900024l-10.599976,17.799988c15.199951,5.799988,18.800049,20.700012,33.699951,28.400024l-8.900024.900024v5.200012c.099976,0,10.599976,2,10.599976,2,2.099976,8.299988-2.900024,12.5-5.199951,19.5l8.900024,1.799988-58.599976,12.400024c7.699951-5.900024,12.599976-17.299988,23.099976-16,2.900024-2.299988-.199951-3.200012-2.599976-3.5-5.300049-.700012-11.5.5-16.900024,0-1.400024-5.900024,7-3.200012,8.699951-8.299988l-1.599976-14.799988,10.599976,3.5-1.699951-14.900024-14-5.900024c-4.400024-7,3.900024-9.599976,3.300049-16.5l-14.199951,5.299988c9.300049-15.5-.400024-29.799988,24.900024-30.200012h0l-.100098-.000061Z"/>
    <path class="cls-1" d="M2089.155754,934.355387c-12.5,1.599976-30.100098-20.099976-40.800049-15.099976-2.100098,1-4.199951,4.900024-7.699951,6.599976-15,7.599976-19.199951-7.800049-35-3.900024l8.399902-7.900024c-3.199951-16.199951-27.5-14.5-36.800049-23.199951-1.600098-1.5-2.399902-1.800049-1.800049-4.300049l5.300049-3.599976c-2.5.699951-19.800049-3-16-7.099976.300049-.300049,6.800049-1.900024,8.100098-1.900024,11.600098-.300049,9.100098,10.599976,17.699951,15.699951,4.899902-.599976,6.100098-6.300049,9.100098-8.300049,10-6.400024,47.399902,8.099976,55.800049,16.599976,3.699951,3.699951,4.600098,8.400024,7.899902,11.699951,8,8.199951,19.300049,14.699951,25.800049,24.800049h0v-.099854Z"/>
    <path class="cls-1" d="M1881.355705,861.555339l-.900024,3.599976c-8.699951.599976-5.900024,7.300049-8.5,12.800049-1.400024,2.900024-4.099976,4.599976-5.300049,7.099976-1.800049,3.800049-.300049,10.400024-4.199951,11.800049-5.400024,1.900024-9.400024-2.599976-14.099976-3.300049-3.400024-.5-20.800049-.900024-22-2-.400024-.400024-.199951-5.900024-1.400024-8.300049-1.699951-3.599976-6.400024-4.199951-7.199951-6.800049-.199951-.599976-.300049-11-.099976-11.800049,1.800049-10.400024,7.800049-4.199951,13.900024-1.300049.199951-2.099976-.699951-4.900024.400024-6.699951.800049-1.400024,23-14.099976,26.199951-17.300049l10.5-14.199951c5-.699951,10.800049,7.300049,14.099976,10.699951-7.699951,7.199951-13,21-1.5,25.800049h0l.099976-.099854Z"/>
    <path class="cls-1" d="M1478.155754,232.755381c-11.199951,2.899994-44.800049-10.700012-38.199951-24.799988,1-2.200012,4.800049-4,6.300049-6.200012s9.599976-15.899994,9.800049-16.799988c4.5-14.700012.400024-13.100006,14.199951-24.899994,16.699951-14.299988,23.300049-12.200012,41.599976-18.799988,7.800049-2.799988,26.599976-14,31.599976-14.700012,3.300049-.5,6.400024,1.100006,9.300049,2.399994,2.099976,1.700012,2.400024,1.899994,1,4.399994-2.599976,4.700012-30.199951,12.100006-37.699951,15.600006-17.599976,8.299988-22.900024,16.799988-35.099976,30.600006-2.5,2.799988-6.599976,4-8.900024,7-7.599976,10-4.599976,26.200012.5,36.799988,1.699951,3.600006,6,5.200012,5.699951,9.399994h-.100098Z"/>
    <path class="cls-1" d="M1430.155754,985.855387l-5.099976,1.099976c.199951,22.900024-9.800049,44.099976-13.599976,66.400024l-16.800049,6.400024c-1.099976-.599976-11.900024-20.599976-12.099976-21.800049-1.800049-11.199951,9.599976-17.699951,10.400024-22.800049,1.199951-8.199951-8.199951-12.599976-5.900024-18,4.199951-10.400024,20.800049-9.199951,26.199951-14.800049,4.5-4.699951,5.099976-15,6.300049-21.199951,8.400024-.900024,12.900024,21,10.599976,24.900024h0v-.199951Z"/>
    <path class="cls-1" d="M524.25573,94.255381l10.599976,4.5c-2.700012,3.399994-7.299988,2.799988-10.5,5.399994s-6.799988,12.5-7.5,13c-.900024.600006-20.099976,1.899994-21.5,1.700012-3-.399994-16.299988-7.399994-15.5-11.200012l17.799988-6.299988c-10.099976-12.899994-33.5,8.700012-37.299988-14.200012l14.200012-2.700012c-2.900024-1.899994-11,.700012-10.400024-5.100006s12.5-18.799988,19.599976-18c9,1,33.099976,21.700012,42.099976,26.799988l-1.5,6h0l-.099915.100037Z"/>
    <path class="cls-1" d="M502.955742,158.255381c20.599976,23,47.400024-13.100006,71.700012,5.100006,10,7.5-16.900024,18.399994-23.400024,19.200012-10.299988,1.299988-45.200012,2.299988-54.5.5-4.599976-.899994-8.599976-6.799988-8.099976-11.399994.700012-5.5,7.099976-5.700012-1.799988-14.299988-9.099976-8.799988-22.200012,4.799988-24.799988-13.299988l39.200012,4.299988,7,5.5-5.299988,4.5h0l-.000061-.100037Z"/>
    <path class="cls-1" d="M947.25573,323.155375l-1.900024-6.099976-9-.799988c8.300049-10.799988-2.5-13.900024-12.400024-10.700012l10.299988-9.799988-3.200012-6.200012c16.199951-2.600006,12.900024,10.400024,20.400024,19.5,3.400024-1.700012,3.099976-9.099976,4.800049-10.299988,1.300049-.900024,4.599976-.099976,6.699951-1.200012,2.599976-1.400024,2.599976-5,4.900024-6.200012,2.099976-1.100006,27.300049-6.899994,28.800049-6.299988s2.5,3.299988,4.900024,4.100006c4.5,1.5,8.900024-1.700012,11.699951,4.5,4,9.000031-16.199951,22.399994-23.199951,25.600006-15.300049,7-26.599976,4.599976-42.800049,3.799988h0v.099976Z"/>
    <path class="cls-1" d="M306.055748,236.5554c-1,1.200012.600006,6-1.899994,9.600006-8.399994,12-28.399994,3.200012-33.799988-7l12.299988-23.5-5.299988-13.200012c7.5-.399994,16.399994-4.200012,23.799988-3.5,4.799988.399994,9.5,4.399994,12.899994,4.700012,3.600006.299988,6.700012-2.100006,11.799988-.899994,2.899994.700012,9.100006,5.700012,12,7.600006,1,4.200012-17.299988,12-20.5,15-2.899994,2.799988-3.399994,7.200012-5.299988,9s-5.299988,1.399994-5.899994,2h0l-.100006.199982Z"/>
    <path class="cls-1" d="M2032.355705,570.255412c6.300049,19.900024-8.399902,33.299988-3.800049,53.099976-9.100098,1.099976-20.100098,5.799988-28.199951,3.799988l-.300049,6.799988-5.800049,2.200012-1.899902-3.700012c-2.199951,6-8.600098,3.299988-9.399902,3.799988-1.600098,1-2.300049,7.700012-8.300049,8.700012s-.5-15.400024-8.900024-12.5c-6.199951,2.200012,2.400024,5.299988,3.299927,7.5,3.399902,8.400024-8.800049,19.099976-11.300049,17.299988-3.199951-6.200012.900024-8.5,1.800049-14.200012l-7.099976-.900024c10.800049-11.799988,24.799927-28.299988,42.599976-22.200012l4.5-16c4.800049-1.099976,1.699951,4.400024,2.699951,5.299988,7.300049,6.5,17.899902-15.5,18.800049-21.299988,1.600098-9.599976-4.699951-15.099976,11.399902-17.799988h0l-.099854.100098Z"/>
    <path class="cls-1" d="M1789.455803,887.755412c2,1.900024,6.900024,1.400024,8.199951,5.199951,2.900024,8.800049-1.099976,25.699951-13.099976,18.5-3.5-2.099976-6-8-8.800049-10.900024-10.099976-10.5-14.800049-17.5-22.300049-29.599976-2.699951-4.300049-8.800049-16.699951-11.5-20-2.5-3-15.300049-6.300049-15.099976-14.199951,14.900024-2.300049,17.5,7.5,25.800049,14.199951,7.400024,6,24,13.099976,28.199951,19.699951,2.099976,3.400024,5.400024,14,8.599976,17.199951h0l.000122-.099854Z"/>
    <path class="cls-1" d="M394.555748,172.355387l3.600006-8.100006,7,1.100006c0,22.200012-12.899994,16.299988-28.100006,20.600006-11.799988,3.399994-25.299988,18.5-35.799988,5.899994,6.899994-1.399994,17.100006-2.799988,21.299988-8.899994l-12.399994,3.5-3.5-7.100006c-2.200012,10.5-14.200012,9.600006-21.5,4.299988.600006-15,20.799988-23.799988,32.700012-16.399994,3.700012,2.299988,2.600006,7.200012,5.799988,8.399994,4.5,1.600006,13.200012-.600006,18.399994.200012,1.299988-5.700012-9.799988-8.899994-10.5-11.700012l7.899994-11.299988,15.100006,19.5h0Z"/>
    <path class="cls-1" d="M1742.455803,65.5554l-3.300049,1.299988.900024,6.100006,18.699951,7.100006c-.5,6.299988-3.699951,11.600006,0,17.700012-9.800049.299988-21.599976-.100006-30.699951-3.899994-5.699951-2.299988-5.699951-5.399994-9.800049-8-7.5-4.600006-26.699951-3.5-16.400024-15.700012,2.400024-2.899994,6-2.899994,8.400024-4.899994,1.400024-1.100006,1.900024-4.100006,4.099976-5.700012,3.900024-2.700012,9.699951-2.5,13.699951-5.799988l14.699951,9.399994-.300049,2.399994h.000244Z"/>
    <path class="cls-1" d="M1934.655754,859.755412c-1,17-35.599976,8.099976-38.300049,12.300049-1.800049,2.800049-1.400024,11.900024,1.900024,12.599976.800049.199951,12-4.599976,16.099976-5.099976,1.900024-.199951,6.400024-1.599976,6,1.599976l-14.099976,7.300049,6.199951,21.099976c-8.5,9.599976-10.300049-5-13-10.099976-1.099976-2.099976,0-3-4-2.300049v23.099976h-8.900024c-.800049-4.699951,2.900024-10.400024,1.900024-14.699951-.5-2.199951-7.400024-2.5-6.900024-7.099976,2.099976-5.900024,7.300049-12.199951,8.800049-18.099976,1.199951-4.800049-1.300049-8.699951,1.5-12.599976,9.099976-9.300049,20.400024.099976,31-1.300049,5.099976-.699951,6.699951-6.699951,11.800049-6.599976h0v-.100098Z"/>
    <path class="cls-1" d="M732.055778,460.155375c-3.700012,9.599976-7.099976,10.599976-1.599976,21.099976,15.599976-6.400024,24.5,20.900024,14.900024,30.400024-1.5.700012-.900024-5.700012-4-7.099976-9.299988-4.099976-27.200012-5.299988-37.700012-7.099976l20.599976-31.799988,7.799988-5.5h0v-.000061Z"/>
    <path class="cls-1" d="M1023.25573,435.455363l-5-4.299988c.400024-6.200012,11-8.799988,12-10.400024.800049-1.200012-2.400024-3.5,1-6.799988,6.900024-6.700012,20.800049-.900024,18.5,7.599976-.699951,2.599976-3.900024,4.299988-4.199951,7.5-.400024,5,3.900024,12.299988-1.599976,17.099976-2.300049,2-22.300049,10.900024-24.800049,10.400024l-2.800049-4.200012,6.900024-16.799988h0v-.099976Z"/>
    <path class="cls-1" d="M456.155754,207.355387c-2.099976,2.5-7.700012,2.5-8.299988,5.899994,12.700012-1.200012,21.200012,9.899994,8.799988,18.600006-16.200012,11.299988-21.700012-7.899994-35.5-14.100006-.600006-2.399994,2.100006-4.5,4.5-4.5,5.099976,0,2.899994,6.700012,7.099976,5.399994l4.5-8.799988-10.600006-4.5c-1.399994-2.700012,7.000031-5.5,8.399994-5.799988,6.599976-1.100006,14-.399994,20.700012-.200012,3.799988.799988,2.099976,6.200012.599976,8.100006h0l-.199951-.100006Z"/>
    <path class="cls-1" d="M2028.755852,175.955394c.399902-16.200012,18.300049,3.899994,26.399902,5.5,3.5,6.100006-11.100098,11.700012-16.300049,10.5-1.300049-.299988-1.100098-3.299988-2.399902-3.600006-.800049-.200012-14.699951.299988-15.5.5-3.300049.799988-4,6.399994-10.5,4.600006-2.699951-.700012-11.399902-10.5-11.699951-13.399994s8.5-11,11.399902-11.299988l18.600098,7.200012h0v-.000031Z"/>
    <path class="cls-1" d="M2245.355705,1133.355387c7.300049,5.400024-12.300049,19.300049-15.800049,23.900024-4.300049,5.599976-6.800049,15.199951-12.5,19.599976-.699951.5-15.300049,6.800049-15.899902,6.199951.399902-5.5-1.699951-7.5-7.100098-7.099976-.800049-.699951,12.100098-16.800049,13.300049-17.800049,4.600098-4,13.399902-5.800049,17.699951-10.800049,3.199951-3.699951,5-12.800049,9.899902-15.099976,2.800049-1.300049,4,1.300049,6.300049,1.900024,1.199951.300049,3.600098-1.199951,4.199951-.800049h0l-.099854.000122Z"/>
    <path class="cls-1" d="M2041.255852,440.5554c4.5,7.700012-.800049,21.900024.399902,27.099976.5,2.200012,3.5,4.200012,4.199951,6.5,1.800049,6.799988,2.399902,14.5,4.300049,21.400024l-8.100098-.200012c-8.399902,11.400024.5,19.400024,2.800049,30.400024h-12.399902c-1.300049-6.5,1.100098-12.900024,1.600098-18.799988.5-7.5,2.199951-18.200012,2.100098-24.700012-.300049-10.599976-6-14.900024-.699951-27.099976,1-2.200012,4.100098-2,4.199951-3.299988.300049-3.5-5.800049-12.5,1.699951-11.299988h0l-.100098-.000061Z"/>
    <path class="cls-1" d="M321.75576,161.755381c-5.100006-.5-5.799988,6-9.700012,8.899994-1.399994,1-11.700012,5.799988-13.299988,6.299988-7.299988,1.899994-9.5-2.399994-4.200012-7.899994,3.600006-3.700012,11.799988-11.399994,15.799988-14.399994,7.100006-5.399994,22.5-15.600006,29.200012-6.299988-5.700012,4.799988-9.799988,28.899994-17.799988,13.299988h0v.100006Z"/>
    <path class="cls-1" d="M566.855766,337.5554c-6.400024,0-11.799988-2.700012-18.5-1.700012-10,1.5-8.099976,12.200012-20.299988,1.400024,1.200012-7,1.5-19,6-24.5,2.400024-3,1.700012-1,3.5,0,11.200012,5.5,24.200012,13,29.299988,24.900024h0v-.100037Z"/>
    <path class="cls-1" d="M440.75573,168.855387c-7.400024,2.100006-16.200012,3.899994-21.299988-3.5h10.600006l-5.299988-8.899994c6.899994-2,8.499969,4.700012,14.199982,5.299988l-5.299988-8.899994c4.900024.299988,17.5-4.600006,20.5-.100006,3.400024,16.100006,4.599976,25.700012-14.400024,28.299988-5.299988-3.399994-1-8.100006.900024-12.200012h0l.099976.000031Z"/>
    <path class="cls-1" d="M2057.155754,543.5554l1.699951,10.5c-6.399902,2.700012-14.899902-.400024-14.100098,9l-21.199951-3.5,5.300049,6.200012-7.100098,4.400024c-8.899902-15.799988,6.100098-14.299988,9.800049-19.5,2-2.799988,2.199951-13.799988,2.699951-17.799988,8.600098,5.400024,11,16.5,23.100098,10.599976h0l-.199951.099976Z"/>
    <path class="cls-1" d="M2255.755852,1101.555339c1.699951,1,2.600098,8.099976,9.699951,6.5,1.600098-.300049,9.399902-7.099976,8.5-.5-1,7.599976-6.600098,7.599976-8.399902,10.300049-2.699951,4.199951-5.800049,18.900024-13.800049,17.199951-5.399902-1.099976,1.300049-6,.899902-7.900024l-7.100098-2.699951c4.600098-8.900024,5.199951-22.900024-1.699951-30.699951-2.100098-2.400024-8.100098-1-7.199951-6.5,11.199951-3.599976,10.5,12.900024,14.100098,15.199951,1.199951.800049,3.899902-1.400024,5-.699951h0v-.200073Z"/>
    <path class="cls-1" d="M418.855766,105.455394c6.399994,4.399994,4.899994,2.799988,11.200012,5.600006,8.299988,3.799988,14.599976,9.799988,17.700012,18.700012-13.700012,1.799988-22.200012-10.600006-37.299988-7.100006-1.799988-6,6.600006-2.799988,7.100006-7.100006-3.799988-1.600006-7.600006-1.399994-11.5-1.899994-2.5-.299988-5.200012,1.600006-4.5-2.600006,4.399994-5.299988,10.799988-10.100006,17.200012-5.600006h.099945Z"/>
    <path class="cls-1" d="M1781.855705,92.455394l-5.300049,5.299988c5.599976,0,13.099976,5.100006,16.800049,8.899994,1.800049,1.799988,3.900024,2.299988.900024,4.399994-7.800049,5.299988-15.199951.899994-22.199951.899994-5.800049,0-13.599976,5.200012-18.599976-.899994l15.900024-17.799988,12.400024-.899994h0l.099854.100006Z"/>
    <path class="cls-1" d="M595.25573,749.655375l-17-3.5c1.900024-14.799988-6.200012-17.200012-16.700012-24l3.5-2.599976c-5.900024-1.200012-11.400024,1.299988-16.900024,1.700012-1.900024.200012-6.599976,1.299988-6.200012-1.700012,11-5,20.599976-6.200012,31.799988-.799988l21.5,30.900024h0l.000061-.000061Z"/>
    <path class="cls-1" d="M1852.955803,929.055339c-3.400024.400024-6.300049-1.699951-9.800049-1.800049-9.900024,0-22-.5-31.599976-2.199951-2.599976-.5-17.400024-5.5-15.5-9.400024,8.099976-8.5,16.400024,1.599976,22.300049,2.599976s11.300049-2.5,17.199951-1.400024c5.099976,1,14.900024,7.199951,17.300049,12.099976h0l.099976.100098Z"/>
    <path class="cls-1" d="M600.155754,767.955363c-3.200012-2.400024-8.700012-1.400024-10.200012-5.799988l12.400024,1.799988-.799988-10.700012c7.700012,2.599976,34.299988,5.400024,30.5,16.900024-1.200012,3.799988-2.599976,1.700012-4.400024,1.5-5.099976-.599976-10.299988-3-15.5-2.599976-3.799988.299988-7.299988,4.099976-8.799988,3.700012-1.599976-.400024-2.099976-4-3.200012-4.799988h0v-.000061Z"/>
    <path class="cls-1" d="M1906.25573,747.855387c-2.5,4.299988-1.199951,9.5-3,13.799988-1.300049,3.200012-7.400024,2.900024-2.400024,13.400024l14,3.200012.199951,6.799988c-6.800049-7.299988-6.400024-2.700012-9.699951-2.599976-8.099976.299988-8.800049-9.700012-17.099976-10.900024v-9.599976c.099976,0,3.699951,1.799988,3.699951,1.799988-2.5-6.400024.5-11.5,1.800049-17.799988l12.400024,1.799988h0l.099976.099976Z"/>
    <path class="cls-1" d="M2055.855705,1161.255412c-3.399902-3.199951-4.600098-12.699951-4-17.300049,5-.800049,8.5,3.800049,13.300049,3.699951,6.899902,0,10.600098-9.800049,15-4.599976-2.899902,9.199951-12.600098,29.300049-24.399902,18.199951h0l.099854.000122Z"/>
    <path class="cls-1" d="M1389.355705,55.155375c-.400024-2.600006,3.099976-2.399994,4.900024-3,15.699951-5.100006,32.199951-5.5,48.300049-2.299988.5,4.600006,0,2.799988-2.599976,3.600006-4.300049,1.299988-12.300049,1-15.199951,2.600006-3.300049,2-7.199951,15.5-16,4.5l10.699951-1.799988c.5-.700012-2.300049-3.5-2.699951-3.5h-27.5l.099854-.100037Z"/>
    <path class="cls-1" d="M1931.055778,827.755412l-5.300049-5.300049,1.800049,8.900024h-10.5c0-.099976-1.800049-11.699951-1.800049-11.699951-7.599976-3.5-7.199951,2.199951-11.699951,6.300049-2.800049-16.300049,21.699951-7.400024,23.099976-19.5,6.5,5.599976,7.5,13.599976,4.400024,21.300049h0v-.000122Z"/>
    <path class="cls-1" d="M442.555778,275.355387l9.900024-14.299988c5.299988-.899994,16.200012,9.700012,20.200012,13.5-9,9.399994-19.700012,1.899994-30.200012.899994h0l.099976-.100006Z"/>
    <path class="cls-1" d="M2060.755852,184.855387c7-1.399994,13.199951,4,18.699951,5.200012,3.100098.700012,16.5-1.799988,15,4.5-2.100098,8.700012-36.100098,4.299988-33.699951-9.700012Z"/>
    <path class="cls-1" d="M1916.855705,790.455363l-2,9.5c-2.800049,1.400024-6.699951,11-9.5,10-5.800049-2.199951-5-8.700012-.900024-12.400024l-8.099976-1.700012v-7.299988c6.400024-5.099976,10.099976,1.700012,14.599976,5.299988l6-3.5h0l-.099976.100037Z"/>
    <path class="cls-1" d="M1165.455803,563.155375c.800049,10.200012,1.199951,22.599976-12.199951,21.099976-6.699951-11.900024-1.800049-21.200012,12.199951-21.099976Z"/>
    <path class="cls-1" d="M591.75573,202.655375c-.5,2.600006-8.200012,4.600006-10.200012,4.899994-10.200012,1.399994-18.5-1.600006-21.799988-12,11.700012-1.700012,21.400024,3.5,32,7.100006h0Z"/>
    <path class="cls-1" d="M2030.055656,201.255381c2.199951,1.899994,12.5,12,13.699951,13.899994,2,3.100006,4,4.299988.100098,7-3.199951-2.5-18.600098-9.5-20-11-.300049-.399994.699951-2.299988.199951-3.200012-1.5-2.600006-4.899902-3.5-4.199951-7.100006,3.699951-.100006,7-2.200012,10.100098.5h0l.099854-.099976Z"/>
    <path class="cls-1" d="M454.955742,124.455394l3.599976-.899994-7.200012-13.299988,23.099976,9.799988c1.200012,5-17.799988,14.600006-19.5,4.399994h.000061Z"/>
    <path class="cls-1" d="M2304.155754,275.355387l-32,1.799988v-8.899994c11.300049,4.200012,26.600098-4.600006,32,7.100006h0Z"/>
    <path class="cls-1" d="M472.355766,167.355387c9.400024-2.399994,11.700012,12,7.700012,14.899994-4.5,3.200012-14.299988-1.799988-17.900024-5.5-.700012-2.799988,8-8.799988,10.200012-9.399994h0Z"/>
    <path class="cls-1" d="M1625.655754,834.855387c.199951-3.900024-1.699951-7.5-1.699951-11.300049,0-1.199951.800049-12.900024,4.199951-11.699951,4.300049,4.099976,14.400024,18.300049,6.199951,22.199951l-8.800049.800049h.100098Z"/>
    <path class="cls-1" d="M376.855766,131.5554l-8.899994,3.5c1,4,6.899994,1.899994,5.299988,7.100006-7.5,1.899994-21,9.100006-19.299988-4.200012,1.700012-5.200012,17.700012-7.399994,22.899994-6.5h0v.100006Z"/>
    <path class="cls-1" d="M1902.655754,699.955363c.900024,8.299988-2.199951,16.099976-6.199951,23.099976l-7.900024-16.599976,14.099976-6.5h0Z"/>
    <path class="cls-1" d="M1469.25573,44.455394c1.400024-11.399994,17.900024-16.5,26.599976-9.800003-7.300049,6.599991-17.400024,7.800003-26.599976,9.800003Z"/>
    <path class="cls-1" d="M1502.455803,46.655375c13.800049-.100006-.699951,22.899994-13.699951,9.399994-.900024-4.100006,10.5-9.399994,13.699951-9.399994Z"/>
    <path class="cls-1" d="M1709.055778,51.655375l-18.800049,10.700012c-4.5.5-6.699951-3.5-9.599976-6.200012,9.800049-2,18.199951-7.600006,28.400024-4.399994v-.100006Z"/>
    <path class="cls-1" d="M504.655754,127.955394c1.5,7-4.900024,7.600006-10.200012,8.399994-9.400024,1.399994-16.200012-1.399994-25.299988-1.299988l35.5-7.100006h0Z"/>
    <path class="cls-1" d="M602.355766,296.755412c-4.400024-3.100006-13.900024-10.299988-9.799988-16.100006l8.799988-3.299988c5.200012,1.299988,2.400024,15.5,1,19.399994h0Z"/>
    <path class="cls-1" d="M1966.655754,897.055339c-10.800049-4.199951-14.800049-2.699951-24.800049,1.800049v-7.699951c1.099976-5.199951,25.199951-4.199951,24.899902,5.900024h0l-.099854-.000122Z"/>
    <path class="cls-1" d="M2076.755852,902.455363c8.699951.199951,21.300049,1.599976,19.600098-10.699951,3.699951-.5,6.5,2.900024,7.199951,6.199951,0,5.800049-24.399902,15.400024-26.699951,4.400024l-.100098.099976Z"/>
    <path class="cls-1" d="M351.955742,129.755381c1.5-6.600006,27.100006-14.100006,28.399994-8,.200012,3-1.899994,4-4.5,4.399994-7.5,1.299988-16.200012,1.600006-24,3.600006h.100006Z"/>
    <path class="cls-1" d="M231.155754,447.655375l3.600006,19.5c-3.5,3.599976-13.299988-13.900024-14-17.099976-1.100006-4.799988,7.600006-1.700012,10.5-2.5h0l-.100006.099976Z"/>
    <path class="cls-1" d="M749.25573,243.655375c3.200012-.299988,6.799988,6.700012,7.700012,9.5-16.200012,13-20.5-8.5-7.700012-9.5Z"/>
    <path class="cls-1" d="M447.855766,99.5554c-6.599976.799988-13-1.700012-17.700012-6.200012l14.799988-4.299988c4.099976,1.299988,2.900024,7.100006,2.900024,10.5h0Z"/>
    <path class="cls-1" d="M1513.655754,55.155375c-.599976-7.399994,7.400024-4.100006,10.300049-5.700012.599976-.399994,8.300049-13.800003,11-4,2.199951,8.200012-16.599976,10-21.300049,9.700012h0Z"/>
    <path class="cls-1" d="M1829.855705,737.255412c.400024,2.5-.300049,4.400024-1.400024,6.599976-7.199951,15.299988-28.199951-4.5,1.400024-6.599976Z"/>
    <path class="cls-1" d="M1945.25573,854.455363c.199951,3.900024,1.900024,7.400024,1.900024,11.5,0,1.599976-.800049,10.800049-4.5,9.800049-3.800049-6-7.900024-20.800049,2.599976-21.300049h0Z"/>
    <path class="cls-1" d="M408.555748,202.855387c2.600006,4.600006,1.700012,8.700012-2.399994,12.200012l-11.5-7.100006c-.200012-7.200012,8.899994-5.600006,14-5.100006h-.100006Z"/>
    <path class="cls-1" d="M1277.355705,620.0554c.400024,2.599976-4.599976,3.200012-6.199951,3.200012-2.599976,0-18.699951-1.799988-18.699951-4.099976,6.900024-5.599976,17.800049-2.700012,24.800049.900024h0l.099854-.000061Z"/>
    <path class="cls-1" d="M1433.75573,248.755381c4.199951,4-15.199951,8.399994-17.800049,7.100006-1-10.100006,11.199951-8.799988,17.800049-7.100006Z"/>
    <path class="cls-1" d="M1934.655754,925.455363c-2.5,3-18.699951,14.800049-21.300049,12.400024,1.900024-8,13.599976-13.5,21.300049-12.400024Z"/>
    <path class="cls-1" d="M1478.155754,48.0554c-.800049,9.299988-15.400024,4.899994-21.300049,3.5-2.5-2.600006.199951-3.200012,2.599976-3.5,5.800049-.700012,12.699951.5,18.699951,0h.000122Z"/>
    <path class="cls-1" d="M2359.155754,371.255412l-23.100098-3.5v-5.299988c1.300049-1.400024,22.100098,4.099976,23.100098,8.799988Z"/>
    <path class="cls-1" d="M97.955757,417.5554l-12.399994,9.799988c-9,1.799988-4.300003-7.799988,1.199997-9.400024,3.5-1,7.600006-.200012,11.199997-.400024h0v.000061Z"/>
    <path class="cls-1" d="M1307.655754,619.955363l16-1.799988c.5,10.900024-16.900024,13.5-16,1.799988Z"/>
    <path class="cls-1" d="M559.75573,344.655375c-.299988,6.799988-8.5,9.5-14.200012,8.900024l1.700012-8.099976,12.5-.799988h0v-.000061Z"/>
    <path class="cls-1" d="M421.25576,163.455394l-10.5-.200012-2-8.700012c7.299988-2.200012,14-.200012,12.5,8.899994h0v.000031Z"/>
    <path class="cls-1" d="M1486.955803,58.755381c-1.300049,2.299988-10,6.5-11.900024,6.799988-2.699951.399994-5-.899994-7.5-1.600006v-5.200012c-.099976,0,19.400024,0,19.400024,0h0v.000031Z"/>
    <path class="cls-1" d="M1938.155754,897.055339l-11.199951,1.599976c-9.300049-10.400024,7.300049-11.099976,11.199951-1.599976Z"/>
    <path class="cls-1" d="M1456.855705,58.755381c4.400024,4.5-9.599976,3.799988-11.599976,3.600006-3.099976-.299988-5.800049.200012-7.900024-2.799988,6.199951-3.299988,13-3.299988,19.5-.899994h0v.099976Z"/>
    <path class="cls-1" d="M691.25573,483.255412c1,9.099976-17.400024,0-17.700012-2.700012-.599976-5.200012,16,3.200012,17.700012,2.700012Z"/>
    <path class="cls-1" d="M1494.155754,243.455394c-6,1-8.699951-4.700012-12.400024-8,4.300049-7.799988,14.699951,5.799988,12.400024,8Z"/>
    <path class="cls-1" d="M1161.955803,559.5554c-11.300049-1.799988-5.099976-9.900024-.900024-16l.900024,16Z"/>
    <path class="cls-1" d="M1883.155754,925.455363c.900024,5.400024-1.300049,2.800049-4.300049,3.599976-4.900024,1.199951-10.099976,2.099976-15.199951,1.699951-.599976-3.300049,0-4,3.400024-4.300049,4.900024-.5,10.900024.400024,16.199951-1h0l-.099976.000122Z"/>
    <path class="cls-1" d="M1888.455803,795.855387c3.199951,4.200012-12.199951,19.800049-14.199951,17.699951,4.400024-4.5,6.699951-9,9.800049-14.200012,1.300049-2.299988-.300049-4.5,4.400024-3.5h0l-.000122.000061Z"/>
    <path class="cls-1" d="M410.555748,145.755381c-2.5-.600006-14.600006-6.600006-10.600006-10.600006s12.799988,5.899994,10.600006,10.600006Z"/>
    <path class="cls-1" d="M653.955742,781.5554c-3.200012,1.099976-14.200012-.599976-14.200012-4.400024,0-5.400024,13.799988.799988,14.200012,4.400024Z"/>
    <path class="cls-1" d="M1572.25573,191.955394c-5.5.200012-11.900024-2.200012-10.599976-8.899994,1.400024-1.5,12.099976,4.700012,10.599976,8.899994Z"/>
    <path class="cls-1" d="M579.355766,350.0554c-.400024,8.099976-8.299988,13.5-8.799988,2.700012l8.799988-2.700012Z"/>
    <path class="cls-1" d="M2124.755852,909.455363c-2.600098,2.400024-12.199951-9.599976-12.399902-12.400024,2.800049-2.599976,13.399902,11.5,12.399902,12.400024Z"/>
    <path class="cls-1" d="M1922.25573,795.855387c-.800049-4-3.599976-5.200012-3.5-8.900024h7.099976v10.599976c-.400024.700012-2.599976-1.599976-3.5-1.799988.400024,2.099976-.199951,4.799988,0,7.099976l-3.5-7.099976c1.199951,0,2.5-.200012,3.599976,0h0l-.199951.100037Z"/>
    <path class="cls-1" d="M321.75576,172.355387c-.299988,6.399994-4.100006,10.100006-10.600006,8.899994.600006-2.100006,8.799988-10.799988,10.600006-8.899994Z"/>
    <path class="cls-1" d="M1122.855705,575.5554c.400024,6.200012-5.900024,5.599976-10.599976,5.299988-.400024-6.200012,5.900024-5.599976,10.599976-5.299988Z"/>
    <path class="cls-1" d="M573.955742,760.255412c-2.700012.5-11.700012.599976-10.700012-4.400024,1.099976-5.5,10.599976,1.900024,10.700012,4.400024Z"/>
    <path class="cls-1" d="M1904.455803,927.255412c.099976,3-8.099976,2.099976-9.800049,1.800049-2.699951-.400024-5.5-.300049-6.199951-3.599976l16,1.800049v-.000122Z"/>
    <path class="cls-1" d="M10.855751,401.455363c-3.699997-.799988-12.099998,2.799988-10.699997-3.5l7.800003-1.5,2.800003,5h.099991Z"/>
    <path class="cls-1" d="M1893.75573,934.355387c1.300049,7.099976-7,1.199951-10.699951,1.699951.599976-8.800049,5.099976-2.5,10.699951-1.699951Z"/>
    <path class="cls-1" d="M350.155754,136.855387c1.299988,7.100006-7,1.100006-10.600006,1.700012l10.600006-1.700012Z"/>
    <polygon class="cls-1" points="417.655754 179.455394 408.75576 181.255381 408.855766 178.655375 411.555748 176.0554 414.955742 176.0554 417.655754 179.455394"/>
    <path class="cls-1" d="M350.155754,152.855387v2.600006c-1.899994,2.799988-3.799988,3.100006-7.100006,2.700012v-3.5l7.100006-1.799988v-.000031Z"/>
    <path class="cls-1" d="M97.955757,410.355387v3.5l-8.899994,1.799988c-1.199997-1,6.399994-6.299988,8.899994-5.299988h0Z"/>
    <rect class="cls-1" x="1906.25573" y="925.455363" width="7.099976" height="1.699951"/>
    <rect class="cls-1" x="1623.855705" y="806.455363" width="1.699951" height="3.5"/>
    <rect class="cls-1" x="1916.855705" y="923.755412" width="3.5" height="1.699951"/>
  </g>
</svg>