<?xml version="1.0" encoding="UTF-8"?>
<svg id="Layer_2" data-name="Layer 2" xmlns="http://www.w3.org/2000/svg" version="1.1" viewBox="0 0 2359.2 1293.7">
  <defs>
    <style>
      .cls-1 {
        fill: #012676;
        stroke-width: 0px;
      }
    </style>
  </defs>
  <g id="Capa_2" data-name="Capa 2">
    <path class="cls-1" d="M1672.7,186.6c.7-.1,4.4-1.9,4.6-2.9l-6.5-23.7c4.4-8.4,51-9.3,62.1-10.9,5.7-.8,31.9-4.9,34-8.6,1-1.7-2.5-7,2.2-10.9,6.3-3.3,16.1-6.3,21.8-.8l-3.5,3.5,14.2,4.5-7.1,3.5c.2,8.5,11.7,4.6,17.8,5.3l-1.8-7.1c10.3,1.5,20.6,2.4,29.3,8.9,28.4,21.2-16.1,29.7-29.3,41.7-4.8,4.3-8,10.4-12.4,15.1,10.5-1.4,20.3-6.4,31-7.1,16.6-1.1,34.8,6.8,52.5,3.6l-5.3,10.6h34.6c1,0,3-5.3,4.4-6.2,2.1-1.3,28.4-1.6,29.9-.6.6.4,7.3,12.4,7.4,13.1,1.1,7.3-9.4,17.7.8,27.5,13.9,13.4,12.4-11.9,24-6.3,10.6,5.1,4.5,1.8,13.4,2.7,8.8.9,19.1,5.7,28.1,3.2,9.5-2.7-1.2-10.5.3-13.9,1.1-2.6,7.2-6.6,10.4-6.6,6.4,0,37.1,10.8,44.5,14,4,1.7,12.8,5.9,15.8,8.6,4.1,3.7,5.6,11.9,11.9,13.5,4.7,1.2,13.9-3.1,20.4-2.9,10.3.4,36.8,7.4,27.8,22.1,1.5,6.3,43.9,5.2,51.9,6.8,6.5,1.3,9.5,13.9,20.8,10.2l-3.5-14.2c1.7-1.5,37.4,5,42.3,6.6,16.3,5.4,39.1,25.4,54.8,34,11.6,6.3,26.6,8.3,36.1,19-3,5.9-14.5.6-16.1,1.7l-3.5,11.7c-1.1.9-16.3-4-18.4-5.5-6.9-4.8-5.8-12.2-20.6-8.7v-7.1h-5.2c-.8,12.2-11.1,14.3-21.4,14.2l13.3,19.5-1.9,3.4c-6.3.5-10.1-2.6-16.8-.9-11,2.8-31.8,19.4-40.6,21.5-2.9.7-9.5-3.2-15.3-2.8-4.9.3-7.1,3.4-11.6,3.7-1-.9,2.2-6.3-2.6-5.3-4.3,1-26.8,14.7-27.5,18.8-.3,4.7,7.8,5.8,8.5,8.8,1,4.3-7.8,25-11.2,29.3-1.7,2.1-4.7,2.6-6.4,4.7-4.2,5.5-10.2,35.4-21.3,24.5-7.1-7-12.7-43.3-9.8-52.5s17.5-10,24.5-15.9c2.5-2.1,3.6-5.7,6.6-8.1,6.6-5.2,21.3-13.2,24.1-20.3,1.5-3.8-1.3-9.9,4.3-9,.6-2-2.1-2.6-3.5-2.8-9.3-1-11.9,10.5-18.6,11.7-6.2,1.1.2-7.8-.9-8.9-14.5,2.5-37,5.9-43.4,21.4-2.9,6.8.6,3.3,2.6,7-8,3.8-14.9,0-23.1,0-2-1.6,7.4-2.1,1.8-4.5-3.1-1.3-13.4-3.1-16.4-2.3-2.6.7-5.2,4.5-7.5,4.3-1.8,0-9.6-3.9-14.5-4.5-4.5-.5-13.1-1-17.2,0s-23.1,23.2-28.8,28c-6.7,5.5-16.7,10.7-23.9,16.1l1.1,3.5c8.6-.8,9.6,5.6,11.5,12.2l12.2.2c1.2-1.2-2.7-10.1,2.7-8.9,8.2,4.3,13.9,10.6,13.2,20.2-.4,5.6-5.7,27-7.5,33.5-4,14.6-12.1,30.7-21.7,42.2-5.6,6.8-26,29.8-31.2,14.2h-2.6c-9.7,5.8-11.1,15.3-16.1,23-2.3,3.6-9.3,7.9-10.6,10.8-2.9,6.4,9.2,17.1,9.8,25.9.7,9.8-5.9,24.3-17.7,22-.3-5.6.5-11.3,0-16.8s-5.8-3.3,1.8-12.3c-8.5-6.9-12.5-5.3-10.8-18.6-6.3-1.9-11.3-2.6-17.6-.2-3.1-19.1-9.6-6.3-18.9-.3-4.2,2.7-14.2,2.6-12.3,9.2,4.4,15.3,16.1,8.4,27.7,8.8,4.7,4.5-16.8,15.9-17.6,20.7,2.9,6.1,9.2,10,11.2,17,2.1,7.4-1.8,11.7-.6,18.2.8,4.2,6.7,7.5,6.5,10.7,0,1.8-15.2,28.7-17.5,31.7-5.1,6.9-15,14.5-22.7,18.2-8.2,3.9-26.2,6.2-31,9.8-2.6,2-2.9,4-2.8,7-5.8-2.7-.5-10.9-9.5-10.1-5.1.4-21.2,11.6-22.2,16.8-1.4,7.4,14.6,18.3,18.5,27,10.8,23.9-6.3,33.5-23.2,46.3.4-16.8-12.9-24.4-27.7-27.5l.2-4.5h-5.3c1.4,9.8-8.1,14.8-5.4,25.4.4,1.7,3.9,2.1,5.2,4.1,2.4,3.7,1.7,9.1,4.7,13.2,2.9,4.1,11.2,7,14.1,12.6,3.3,6.3,4.4,19.2,8.1,26.5-21.9-5.4-17.2-18.7-24.1-31.8-2.7-5.1-15.7-13.2-16.5-15.5-1.2-3.6,2.1-20.8,1.5-28.1-.8-10.4-5.5-20.8-7.1-31.1-7.7,2.5-9.5,9.8-19.5,7.1,9.1-22.9-12.7-27.9-17.8-46.2-5.7,1.5-9.2,5.6-15.5,6.7-3.3.6-14.1,0-14.6.5-.3.3,0,5-2.6,8.9-1.4,2.1-19.9,19.9-23.2,23-3.5,3.2-15.9,10-17,11.4-3.3,4.2-.9,14.9-2,21.1-.7,3.6-8.1,23.2-10.1,25.4-2.8,2.9-8.4,6.6-10.5,1.4l-26.9-54.8v-40c-10,13.2-17.7,11.5-26.6-1.8l10.7-3.5c-6.2.6-12.8-.5-17.7-4.5-8.5-7-1.1-15.8-18.6-13.1-6.8,1-10.6,5.7-19.6,5.3-3.6-.2-26.4-6.1-29.9-7.5-3.2-1.3-3.2-5.5-6-6.5-6.3-2.2-16,1.6-24.2-3.8-1.6-1-1.9-3.4-3.2-4.4-2.3-1.8-5.1-2-7.1-4.1-5-5.5-4-19.8-16.4-16.2-2.9.9-7.4,5.7-6.4,9.1l19.3,29.7.9-5.3,4.7,14,18.9-2.9,12.9-11.1c-3.4,13.3,10.4,11.3,16,17,1.5,1.5,4,7.9,6.9,10.2-1.1,5.6-4.5,9.2-8.7,12.5-.8.7-2.9-1-3.6.3-1.8,3.4-.9,9.6-2,11.2-.5.7-11.5,3.6-14.6,5.9-15.3,11.1-29.1,18.5-45.9,26.9l-32.2,8.5c-5.7-17.3-7.3-32.1-18.9-47.2-2.5-3.2-8.1-5.8-9-7.4-2.6-4.5-1.5-13-4.9-19.6-2.3-4.6-6.9-7.1-9.6-11.7-5.7-9.8-12.4-22.6-15.7-33.2l-8.8,7.1c-1.2-.9-1.7-12.5-7.1-10.6,3.1,13.7,11.8,26.8,18.1,39.6,3.6,7.5,8,13.8,10.8,19.5,3.8,7.5,1.6,15.6,4,20.8.6,1.4,13.2,23.8,14.2,24.9,3.3,3.7,15.9,7.9,20.2,15.4,2.9,5-1.3,8.2,1.8,12.3,1.1,1.5,9.7,7,11.6,7.1,8.9.8,31.6-8.4,42.8-9.8,2.8-.3,2.9-.4,2.5,2.5-.7,5.4-6.4,17.6-9.1,22.9-17.1,33.9-39.4,46.3-59.8,75.2-2.7,3.8-14.7,21.3-14.2,24.2.4,2.2,4.2,4.6,4.7,7.8.5,3.4-2.1,7-1.2,11.7.8,4,5.1,6.5,6.7,11.2,3.3,9.7,2.5,31.8-4.4,39.8-3.6,4.1-13,5.7-17.7,8.9-2.9,2-13.1,13-14.2,16.1-2.8,7.9,4.2,11.2,4.5,18.6.7,15.5-5.6,19.4-19.4,22.4-1.3,5.9,1.4,13.7-1.2,19.2-.6,1.3-15.1,21.8-16.8,24-10.4,12.7-24.5,20.3-40.4,23.6-8.1,1.6-18.3.4-26.7,3.5-12.5-4-9.7-15.9-13-25.2-4.7-13.3-14.7-22.1-18.1-29.8-3.8-8.3-2.9-25-6.6-36.1-2.8-8.7-14.8-25.8-15.7-32.3-.3-2.3,2.7-24.5,3.6-27.6,1.2-4.4,5.4-7.2,6.3-11.4,1.8-8-5.8-45.8-9.4-53.8-3.3-7.5-16.8-16.8-18.4-24.4-2-10,7.2-24.5,1.3-34.9-4.8-8.5-14-2.3-21.1-5.6-3.8-1.7-9.9-12.1-13.7-13-7.5,1.4-15.2,1.3-22.6,3.4-5.7,1.6-11,6.1-16.2,6.9-7.2,1.1-12.8-2.1-19.3-1.8s-12.6,5.6-17.9,5.6-25.6-14.1-29.2-17.1c-13.3-11.1-23.1-39.8-35.4-53.4-.6-2.8,8.2-16,8.5-21.2.6-8.3-7.7-20.9-7.1-30,15.3-21,20.7-47.2,46.1-58.9l4.6-25.6c10.8-8.2,20.6-11,22.2-26.6,4.5-1.5,7.3,3.7,10.4,4.4.7.2,14,.5,15.1.4,5.4-.5,23.7-13.5,34.4-15.1,6.9-1,11.4,1.8,15.5,1.3,6-.6,14.7-1.1,19.5-1.7s10.4-7.6,17.1-.7c-4.1,6.1.8,14.4-.4,18.9s-7.7,6.2-6,8.4c7.7,9.4,25.9,9,33.4,14.1,2.5,1.7,3.3,6.3,7.7,8.7,2.7,1.5,21.9,8.4,23.6,7.2.2-14.6,2.7-23.3,20.2-19.4,1.4.3,1.4,3.1,3.4,4,11.1,5.1,29.1,12.2,41.2,10,2.8-.5,4.9-3.3,7.3-3.5,4-.4,8.5,5.3,17.6,3.6,12.4-2.4,19.3-38.5,16.9-49.7-3.3,2.6-7.2-.5-9.5,0-2,.3-.6,5.3-7.4,5.6-7.2.4-10.9-6.9-17.5-5.6-1.4.3-.4,3.5-3.8,3.8-15.7,1.4-26.6-14.7-22.3-28.6h-5.3l2.8-10.7c-2.7-5.2-25.1-7.2-26-2.4,2.2,8.5,2.4,18.8,8.8,24.9l-5.1,13.7-4.4,1.2c-7.8-6.2-4.7-9.7-6.6-16.5-1.2-4.2-11.7-16.8-12.8-20.7-1.2-4.2,3.1-10-1.2-16.8-5-7.9-18.5-10.9-23.9-15.2-7.3-5.9-6.1-25.1-22.1-17.8,1.3,3.7,1,9.2,2.8,12.3.7,1.3,3.6,1.7,4.4,3.1,4.3,8,4.3,13.1,12.9,18.6s2.8,1.9,6.5,5.7c4.2,4.4,15.7,6.2,14.3,15.2l-8-1.8.6,12.1c-4.4.9-5.2,5.4-7.7,7.6-1.5,1.3-4.6,0-5.4,1.5-2.2,3.9-.8,8.9.9,12.6-8.8,1.7-9.5-8.6-19.5-9.7,1.9-4.6,24.2-.7,24.2-14.2s-10.5-15.6-14.4-18.7c-8.9-7-14.9-7.5-23-19.7-3.4-5.1-2.5-14.1-10.8-14.2-9.5,0-14,11.6-18.1,12.3-2.3.4-5.5-2.9-8.7-3.3-12.3-1.2-8.7,13.1-12.3,17.8-1.6,2-6.6,1.6-10,4.2-1.4,1.1-8.4,12.1-9.1,14-2.3,6.3,0,12.4-2.3,17.2-.7,1.5-12,10.4-13.8,11.1-5.1,2-9.3.8-14.2,1.7-5.9,1.1-13.6,9.3-11.9-4l-19.5,1.8c-.9-.9,3.2-9.5,3.1-11.9,0-2.7-3.1-4.3-3.1-8.3,0-9.1,2.1-16.1,1.6-28.6-.3-6.9,3.7-11.6-1.6-16.9,5.8-1.1,11.4,1.8,16.9,1.9,4.1,0,7.7-2,12.2-1.8,5.4.2,21.6,7,25.2,1.8,1.2-1.7-.4-24.8-1.3-27.4-.9-2.8-5.1-3.3-6.9-5.5-1.9-2.4-1.9-6-4.3-8.2-2.6-2.3-8.2-2.4-9.5-3.7-.3-.4.3-6.2-3.9-8.6,6.2-1.5,16.4,4.2,20.4-1.9,1.1-1.7.7-5,1-5.2.8-.8,8.6,3.9,12.5,1,1.6-1.1,1.1-4.6,2.1-5.8,1.4-1.8,6.2-1.6,7.7-4,1.1-1.8-.8-4.4-.5-6,1.4-6.5,12.2-3.8,17-6.7l4.5-19.5,26.9-8.6c-2.6-17.3-17.6-45.8,11.4-44.5.7,13.2-9.8,20.3-6.2,33.8,3.6,13.9,11.1,9.2,21.3,10.7,3.1.5,5.2,4.2,8.6,3.3,2.4-.6,4.9-5.3,8.3-6.2,4.3-1.1,12.4,2,20.4-.9,6.6-2.3,8.3-9.2,17-7,1.6-1.5-5.2-21.8,2.9-28.3,5.9-4.8,7.9,8.9,16.7,7l3.4-14c-5.9-1.9-9.9-7.2-12.3-12.7,9.9-3.5,23.7,0,32.5-1.8,1.2-.3,6.7-9.6,15.4-3.5,0-3-5.9-3.4-8-3.5-12.8-1.1-38.6,6.7-46.1-3.6-5.1-7-.5-9.4-1.3-14.7-.4-2.8-4-5.1-3-8.9,1.1-4.4,11.6-10.1,15-13.6,4.1-4.3,3.6-11.7,11.4-10.8,5-5.5-24.8-26.5-28.1-4-.6,4.4,3.1,6.9,3.3,10.4.5,8-19,11.9-23.1,23-1.5,4-2.8,11.6-1.5,15.6,1.5,4.9,12.2,6.2,10.2,12.6-.7,2.2-11.6,6.5-14.9,11.8-3.7,5.8-2.8,13.2-5.5,17.6-1.7,2.8-5.2,3.2-6.9,5.5-2.9,3.9-1.3,11.4-9,10.7l-3.6-1.8c0-11-7.8-18.1-11.9-27.2-2.7-5.9-2.4-13.5-6.7-19-3.3,1.7-3.8,7.2-6.3,10.5-6,8.2-17.4,14.1-26.6,7.3v-39.1l23.2-16c28.4-22.3,35-61.1,63.9-83.5,9.6-7.4,24.2-10.4,31.7-16.2,7.1-5.5,6.6-13.7,20.7-10.4l-8.9,12.4c11.8-12.2,24.5-11.4,37.2-.9-3.6,4.3-8.9,4.8-14.2,4.5,8.3,14.6,18.5-.6,30.2,5.3-.2,3.5-5.6.8-8.9,2.6-3.1,1.7-.8,3,1.2,4.2,8.6,5.7,18.9,4.3,27.8,7.7,10,3.9,17.3,15.2,31.2,14,3.2,39.2-34.2,17.8-54.9,12.3,2.5,5.1,10,8.6,11.6,14.1,2.2,7.1-1.4,20.4.9,23.8,3.8,5.7,18,9.7,22.9,3.8-3.2-3.5-8.1-6-7.1-11.5h17.8c-2.5-4.3,4.6-13.8,8.2-15.8,7-4,16.7.3,21.2-3.7,8.7-7.8-6.7-17-6.1-20.2l8.1-8.1,7.7,6.1-7.1,2.6c1,24.6,28.4-.9,39.1-6.3,19.6-9.9,15.5-2.2,31.1-2.5,8.6-.1,16.3-5.2,24.9-5.5l.9,5.3c5.9.6,11.7-2.2,15.9-6.2l-8.8-8.9c18.3-14.5,43.1,10.9,55.9,23.9,9.7-10.9-4.2-18.9-7-24.9-1.3-2.8-.8-6.1-1.8-8.9-.9-2.5-3.6-4.5-4.2-6.6-2-7.5,6.6-12.3,9.3-18.4,2.5-5.6,1.7-14.1,7.2-17.7,6.3-4.1,14.8,1.9,22.3.1,2,1.8-6.8,21.7-7,25.9-.2,5.1,3.2,11.5,3.5,17.6.3,7.1-3.1,13.6,0,19.3,3.7,6.6,9.8,5.3,8.3,15.8-1.7,12.2-17.4,16.1-28.1,15.6.3,2.5,6.3,4.2,8.4,4.9,2.7.8,5.4,2.6,8.4,2.2,2.3-.2,18.6-13.7,19.6-16.1,2.4-5.4-3.7-8.4-2.5-12.9,2.2-3.9,7.5-7.8,12.2-5.7,4.2,1.9,7,9.3,10.7,11.6.2-4.8-4-13.6-7.8-16.1-5.5-3.5-15,.8-16.8-4.6-1.6-4.8,1.5-14.9,1.7-21.1,0-5-2.3-9.8-1.9-14,.5-5.6,6.9-9.4,7.1-15.2,3.1-.5,1.9,4.2,1.8,6.2-.4,5-3.9,10.9,1.2,15.2h13l-8.8-6.3c12.1-14.7,29.3,2.2,44.4.9.4-7.5-7-12.8-13.9-12.7l-3.9-19.2c13.9-1.6,32,2.1,45.3,0h0l-.3.2h0ZM1357.4,502.8c-6.7-1.4-30.1,3.8-28.5,13.3l7.8,4.3,1.1,3.7c-4.8.5-13.8,9.9-17.9,6.4-2.3-2,.2-8.3-7-6.4-1.5-5.5,7.9-3.8,7.1-10.6l-12.4-1.8,5.3-3.5c-17.3-2.6-14.3,8.4-18.7,17.6-.9,1.8-3.4,3.1-4.1,4.8-1.3,2.9-7.1,14.7-7.3,15.8-2.1,10.6,4.6,10.5,7.1,18.6-6.5-1-11.3,1.1-14.2,7.1l19.5-3.6-3.5-5.3c4.4-.6,10.8,1.1,14.8-.3,3.2-1.1,3.5-8,12.9-8.5,14-.8,35.5,20.9,53.6,6.8,5.2-8.5-9.7-20.8-15.8-25.4-3.8-2.8-15.8-7.2-17.6-10.8-2-3.9,6.5-3.2,8.4-5,.8-.7,0-5,4.1-5.7l-3.6-6.2c1.2-1.1,10.7.6,8.9-5.3h0s0,0,0,0ZM1447.9,506.4c-5.8,2.5-11.4-.3-16.4.3-11.5,1.4-17.1,18.3-26.2,23.7,9,5.1,6,18.2,10.5,24.5,2.1,3,11.5,4,12,7.3l-9.4,34.8c12.1,7.6,24.1,10.2,38.3,8.8l-9-34.6,8.8-5.2-4.3-8.2-6.2,3.6v-13.1c-9.2-2.1-8.8-10.5-12.6-17.9l3.5-1.7-1.7-6.3,21.3,1.8c0-3.1-4.5-2.1-6.2-5.3-1.6-3.1-1.2-8.8-2.7-12.4h.3q0,0,0,0Z"/>
    <path class="cls-1" d="M270.3,483.3c2.3,1.3,5.1,1.6,5.3,1.8,1.8,1.5,4,6.6,5.3,8.9-6.7,5-34.1-12.3-30.2-16,4.6,0,7.6,3.8,12,4.9,2.7.7,5.8,0,7.5.4h.1Z"/>
    <path class="cls-1" d="M270.3,483.3c-4.1-2.3-9.8-3.4-12.5-6.1s-15-20.4-15.7-21.6c-2.1-3.8-2.2-10.8-4.6-13.2-3.1-3.1-8.2-.6-11.6-2.6-1.4-.8-4.3-6.6-7-9-10.9-9.4-10.9-11.2-19.6-21.2-8-9.2-26.6-15.5-38.6-18.3-5-1.1-10.2.4-15.1-.8-4.4-1.1-9.2-8.1-14.7-8.4-4.8,0-21,28.1-32.8,24.8-1.7-11.6,5.4-13.2,10.6-18.7,1.5-1.6.4-4,1.7-5.2,2.4-2.1,7-1.4,7.2-4.5-11.3,1.4-22.3,13-28.1,22.5-1.9,3.2-1.7,7.1-3.8,10.4-6.2,10.1-32.2,27.9-43.3,33.1l-31.4,12.1c16.4-18.8,45.2-17,53.3-45.3l-32,.9v-8.9c-15.6,1.9-22.5-3.2-23-18.9-.2-7.5,3-8.8,8.7-12.2,10.2-6.1,28.2-4.2,17.8-17.7,6.2-1.3,4.1-6.6-1.8-5.5-9.5,1.7-15.7,8.7-27.4,6.5l-4.5-11.5c.3-1.5,11.8-7.6,13.6-7.7,5.8-.5,13.8,9.9,23.7-3.1-3.9-7.8-11-4.7-16-7.1-3.6-1.7-5.8-11.9-12.4-11.6v-2.6c8.7-6.2,15-19.1,23.2-24.8,2.7-1.8,28.9-14.3,31.4-14.9,1.3-.3,26.3,1.4,27.6,1.8,3.5,1,4.4,5.8,9.3,6.7,24.3,4.7,55.3-1.3,80.8,4.4,6.4,1.5,17.5,9.2,22.6,4.1s.9-5.3,3.4-6.9c2.3-1.5,7.3.5,11.2-.5,7.1-1.9,15.1-10.7,22.3-11.7,3.4-.5,3.8,2.3,2.6,3.5-1.3,1.4-14.6,5.1-16,8.9,11.2-3.4,21.6-6.9,27.5-17.7l14.2,14.1,2.7-5.3c4.4-1.7,4.6,5.1,6.1,5.2,5.7.1,7.4-6.8,10.6-6.9,4.8-.2,19.9,6.1,26.2,7.6,5.3,1.3,29.7,2.9,28.1,9.2l-8.9,6.2c5.8-.5,11.1,2,16.9,2,18.4-.3,23.9-10.4,35.5,12.3,2.2-7,.6-16.6-4.4-22.2,4.6-4.3,12-7.8,18.2-5.9,2.8.9,4.6,4.8,7.9,6.4,10.9,5.4,23.1,3.8,34.8,4l6.5-9.9,12.4,1-1.6,9.5,6.9,4.7c-4-13.7,6.7-10,9.8-16,4.2-8-3.9-6.4-2.7-9.8l5.3-6.2c-11.5-1.2-15.4.2-17.3-12-2.4-15.4,4.1-12.8,4.9-15.9,1.7-6.7-1.6-16.5-1.5-22.7.3-17,13.9-24.8,29.8-22.2l-7,18.8-13.9,5.1-.4,15.1c5.5-2,14.5,16.1,15.1,19.4.7,3.9-2.9,7-2.7,10.8,16-1.5,9.1,10.3,15.1,19.5l6.1-15.2c17-2,3.8,16,6.2,20.5,2.1,3.9,11,5.6,15.2,5.3-4.2-8.5,5.9-9.1,1.6-18.3,11.8-3.3-4.1-16.2,6.3-17.2,8.5-.9,27.7,5.9,22,17.7l-5.1.2c-1.9,8.4,8,12.9,3.6,20.4-6.3,10.9-21.4,9.3-32.1,7.9-1.6,5.3,5.8,2.2,3.5,8-2.2,5.4-26.1,2.1-32,.9,5.2,6.8,15.8,9.3,24,8.9,7-.7-3.7,13-5.7,13.8-7.7,3.1-20.6,4.2-28.9,4,0,3.5,13.3,1.3,10.6,6.2-1.6,3-7,2.3-9.9,4.4-9.4,6.7-16.9,29.6-18.6,41,16.9-1.6,16.8,13.3,25.7,22.9,14.5-11.7,26.5,8.2,36.5,11.7,6.5,2.3,15.1.4,21.3,5.4l3.4,24c8.3-.3,15.9-.7,16,9.5,15.3,4.3,3-24.9,3.9-31.3,1.3-9.3,10.8-7.3,13-10.1,1.2-1.5,2.8-10.9,2.8-13.4,0-10.5-8.7-18.4-9.1-23.2-.3-3.8,3.3-5.7,3.3-8.4s-2.5-5.2-2.8-7.8c-.6-6.8.7-13.8-2.2-20h31.1c2.5,0,19.7,17.2,27.5,14.2l-3.4,18.4c.5,1.9,15,9.5,17.1,9.8,6.9.9,4.3-4,6.3-6.4,1.5-1.8,5.7-1.4,6.4-2.5,1.3-2.1-.9-12.8,7.4-13.1,1.6.7,17,28.7,17.5,30.7.9,3.9-2,7.4-1.3,9.9.9,3.1,11.5,5.2,6.9,13.6,7.5-.3,16.2-.3,21.3,6.2,1.3,3.3-8.5,4.2-11.3,6.4s-3.4,3.1-2.9,6.9c4-6.3,26-8.3,26.2.5.6,22-8.8,15.8-20.8,21.9-4.2,2.1-7.4,8.2-13.9,9.3-4.5.8-7.4-1.4-10.2-1.1-5.2.5-24.3,2.4-27.6,4.1-3.5,1.8-2.7,6.3-4,7.6-2.5,2.4-19.4,5.9-16.4,16.4,6.2-3.5,23-19.2,29.8-17.5l6.4,7.5-10.5,7.4c7.4,3.8,3.7,16.4,12.4,16.9l-.9-7.1c3,4.1,6.3,6,11.6,5.3,1.8,7.2-8.1.6-8.9,5.3l13.1,1.7,2-1.6c1.1-4.7,1.7-10.9,8-10.7.2,19.5-15,19.5-26.5,25.9-3.3,1.8-4.8,6-8.5,7.5-1.9.8-6.8,1.8-5.8-2.3,5.6-6,8-12.9,17.8-11.6,1.6-3.9-4.1-4.9-6.6-4.8-2.3,0-11.2,3.9-13.5,5.2s-2.8,4.2-4.2,5c-4.3,2.5-11.7,3-15.7,7-6.5,6.6-3.2,19.6-4.6,21.1-1.8,2.1-17.7,6.8-20.3,9-3.9,3.4-4.7,14.7-6.1,16.1-3.8,3.6-2.8-4.5-5.3-3.5,2.2,7,3.4,14-2.7,19.5l-4.4-17.7c-3.7,9.9,4.1,18.7-1.6,29.4l3.5,1.8-2.2,8.4c-9.9,8.2-31.2,19.5-33.1,32.7-2.2,15.3,13.2,29.4,6.7,44.8-14.2-2.3-12-20.5-15-30.3-3.5-11.2-23.3-7.3-32.1-7.4-1.2,0-18.6-3.6-14.2,2.2,1.2,1.5,7.3,1.2,3.5,5.3-9.9,1.4-20.9-6.8-30-5.3-3.5.5-23.5,14.6-25,17.8-3.3,7.2,4.5,9.7,4.1,14.8-.4,4.2-7.4,12-8.2,16.7-1.5,9,16.2,33.6,25.5,34.1,5.5.3,12.2-4.4,18.5,0l8.3-21.5,22-.8c2.8,2.1,1,2,.3,3.9-1.2,3.3-3,9.8-4,11.6-1.1,2.3-4.3,2.1-5,4.3-1.2,3.6.7,8.5-.5,12-1.1,3.3-6.8,1.4-5.1,6.4,21,3.8,41.1-7.2,37.3,22.3-1.6,12.2-10.1,16.2,7.6,24.2,13.5,6.1,14.5-1.6,25-.3,5.2.7,6.9,5.1,11.7,5.3.8-14.9,20-23.6,33.1-24.2,7.9-.4,61.3,10.5,66.2,14.6,9.2,7.7,14.8,19.1,27.6,25.7,8.9,4.6,21.9,4.1,28.5,8.8,5.6,4,5,10.5,8.8,14.3s10.6,4.1,15.2,9.7c3.6,4.3,3.9,9.7,6.3,13.2,4.7,6.8,41.4,14.1,52.3,18.8,11.9,5.2,20.1,15.6,33.8,13.3-2.8,6.6,3.4,14.6,3.4,18.7,0,6.4-16.2,24.2-22,27.6-2.3,1.3-6.1,1.4-6.3,1.7-.6.7,1.7,4.4,1.6,6.3-.2,3.3-3,5.7-3.3,8.9-.5,6.3,1.4,35.8-2.1,37.8-1.7,1-6.7-.5-10.4,1.2-6.4,2.8-10.3,15.2-15.9,19.6-4.7,3.7-11.5,4.8-16.7,8.2-16.9,11.2-12.3,26.6-21.7,40.4s-15.2,14.7-21.2,21.4c-8.7,9.6-12.9,26.2-29.3,19.6-2.4,2.2,9.2,6-1.8,15.1-10,8.3-20.3,1.9-21.3,2.7-.4.3-1.3,6.1-4.5,8.9s-7.5,2.8-10.9,5.2l6.4,17.8-16-1.8c-.3,14.1-14.2,28.8-12.4,41.7.5,3.1,3.6,6.6,3.2,8.7-.8,4-22.7,20.5-22.9,28.6,0,3.8,4.8,24.1,7.2,26.7,1.2,1.2,18.6,9.9,21.2,10.8,3.6,1.2,9.9-.7,10.7,2.6-16.4,3.1-27.4,7-43.2-.3-42.5-19.7-38.6-58.2-33-98,6.5-46.2,20.4-93.2,27.7-139.3,1.8-11.1,5.2-28,4-38.6-2.5-23.6-14.7-22.3-29.3-34.7-14.9-12.6-18.5-27.2-27.3-43.8-4.9-9.3-16.2-22.2-17.7-32.1-2.5-17.4,19.6-42.1,27.7-56.8,0-11.6-7.2-46-19.5-22l-2.3.3c-8.4-5.7-25.9-8.1-31.2-16.9-3.1-5-1.8-8.6-7-14.3-11.9-13.4-26.1-12.3-39.2-19.4-5.8-3.1-11.9-11.6-17.2-13s-10.7,0-16.5-1.2c-9.2-2.1-38-11.9-45.2-16.9-11.4-8-5.4-15.2-8.9-23.1-1.6-3.5-18-17.5-22.2-22.2-3.6-4-16-16.9-17.8-19.5-6.4-9.5-5.4-23.1-20.4-29.3-2.4,1.2.3,4.5.9,6.2,2.2,6.2,6,15.3,9.2,21,6.2,11.3,16.1,18,19.3,30.4-8.1,7.8-12.8-10.2-16.8-15.1-4.7-5.8-13.6-9.3-18.7-15l7.1-1.8c-12.2-10.1-12-29.6-23.5-38.7-5.5-4.3-15.4-5.6-18.2-8.5-3.7-3.8-3.9-13.8-5.9-19-6-15.5-14.9-18.4-16.3-38.7-1.5-20.8,10.4-39.5,2.6-59.5-1.7-4.4-6.2-7.5-6.2-12.4,2.2-2,16.4,5,14.2-.9s-8.4-9.7-14.2-11.6c-1.8-.6-3.3-1.2-5.3-1.8h1.2q0-.1,0-.1Z"/>
    <path class="cls-1" d="M955.9,14.4c-4.1,10.6-15.9,12.4-10.6,26.6l51.1-13.8c8.1,1.2,19.8,2,25.3,8.4-6.7,1.3-19.6,7.4-24.8,11.6-3.8,3.1-7.9,9.9-12.5,14.2-9.8,9.2-25.4,14.8-18.2,32.4,1.7,4.2,10.5,9.9,11,12.1,1,4.4-6.9,4.6-8.9,7.3-7.5,10.3,0,16.8,1.5,25,.8,4.1,0,8.1.5,11.9.9,5,3.6,8.7,3.5,14.3,0,9.5-11.3,12-15.8,19.8-2.8,4.8-9.6,26.4-9.1,31.5.7,7.5,8.2,16.2,4.4,24.2-1.1,2.2-33.8,19.5-38.8,21.6-20.3,8.6-36.4,5.9-43.3,31.8l-36.1,13.2c-4.6,9.1-12.6,56.9-19.5,60.4-7.9,4-27.8-4.9-36.1-7.9-5.6-13.8-15.5-25.5-22.3-38.5-7-13.4-16.7-33.5-11.9-48.7,3.3-10.5,22-9.1,18.4-25.3-.8-3.8-6.5-10.4-10.2-11.1-4.4-1-11.2,9-13.5,4.6,1.9-8.2-5.5-16-6.2-20.6-.8-6,4.3-10.8,3.2-17.2-.7-4.3-20.2-47-23-49.9-3.9-4.2-7.8-5.1-13.2-6.3-27.7-6-57.4,4.3-78-19.7-3.2-3.8-9.4-11.6-7.8-16.6,2.6-8.1,57.3-14.8,56.7-34.9-2.8.6-19.5-2.4-16-7.1,15.7-5,29-17.7,43.2-25.2,14.7-7.8,59.9-17.6,76.3-15.3,4.5.7,26.9,9.4,28,8.4-1.1-9.4-11.5-10.2-17.3-13.8-1.8-1.1-3.1,0-2.3-4,8.8-1.5,16.7-6.3,25.8-7.1s25.3,3.7,31.7,1.5c2.7-.9,3.7-5.6,6.5-7.7,3.9-3,36.4-4.8,43.5-4.4,20.3,1.2,44.5,10.8,64.9,14.2h0s-.1.1-.1.1Z"/>
    <path class="cls-1" d="M2047.1,958.8c2.4,1.9,5.5,1.7,8.2,2.5,1.2,1.4-.6,9.7.1,12.8.5,2.1,5.7,2,6.8,6s-.9,9.6,1.2,13,12.4,3,16.7,10c1.4,2.2,1.4,6.1,2.4,7.3,1.6,1.9,6.7,1.2,8.1,2.6s.9,7.2,2.7,9.8c1.8,2.6,10.5,4.6,12,7,7.1,11.1,2.5,41.9-2.8,53.9-2.6,5.8-8.6,10.8-10.7,17.7-1.4,4.6-.3,9.1-2.2,13.8-3.4,8.5-24.3,16.8-33,14.6-1.4-.3-1.2-3.5-2.3-3.6-3.4-.5-6.9,3-10.6,3.6-8.3,1.3-16.6-1.5-22.1-7.9-3.9-4.5-11-15.1-12.4-20.5l-5.3,1.8,3.5-12.4c-19.4,15.4-12,6.1-25.7-1.8-8.3-4.8-26.2-7.5-35.2-4.9-2.8.8-4.8,4.9-8.3,5.9s-6.1-1.1-12.3,1.9c-6.8,3.2-9.2,10.1-13.1,11.8-4.7,2.2-10.4.8-15.7,2.1-14.3,3.6-29.7,20.7-40.6.3,8.3-5.8,4.5-20.2,1.8-28.8-2.2-6.7-9.6-14.8-10.5-19.9-.7-4.4,1.8-8.9,1.7-13.8-.2-5.6-3.4-14.9-2.1-19.4.5-1.8,3.7-.5,4.8-1.5,9.6-8.2,10.1-11.8,24.2-17.6,5.6-2.3,17.4-3.3,21.3-6.6,2.4-2,2.7-10.7,6.5-15.3,1.3-1.6,25.2-20.7,26.8-21.3,8.4-2.9,12.7,5.9,21.1,4.4,1.6-13.9,5.1-18,19.6-15.9v-7.1c6,.4,12.5-.6,18.5.2,19.6,2.7,2.9,9.8,1.4,18.9-1.7,10.2,12,9.6,19.1,13.9,4,2.4,6.6,7.9,11.7,9.3,14.3-10.4,6.7-21.8,7.9-34.3.3-3,4-14.2,8-9.7,3.4,3.9,5,14.3,8.5,17.2h.3Z"/>
    <path class="cls-1" d="M671.7,46.3c-11.6,11.1-28.2,21.8-44.4,24.9l5.3,4.4c-7.4,8.7-18.7,14.6-30.2,15.1,4.6,8.4,1,18-7.6,21.7-3.6,1.6-8.2.5-11.1,3.1-2.7,2.4-4.5,12-8,15.1,21.4,10.7,4.4,17.9-9.8,22.2l-2.5-6.4-2.8-.9c-12.6,4.3-31.2,5.3-44.5,3.8-2.8-.3-6.3-.5-6.1-4.5l14.2-8c1.1-5-8.7-6.8-3.6-11.6,7.7-5,19.2,8.4,26.7,0l-24.8-6.3c-.4-14.4,16.6-18.9,28.4-14.2-4.9-8.1-14-13.4-20.4-19.5-1.7-1.7-3.4-2.3-2.7-5.3,18.5-2.2,39.6-5.9,53.3-19.5l-44.4,12.4,3.5-5.3c-15,3-40.3,4.7-44.4-14.2,1.3-1.9,41-12.3,43.6-12.2,6.4.2,22.4,9.4,31,8.6l-21.3-8.9c-5.2-7.7,22.9-12.1,27.5-12.4,6.2-.4,10.9.2,16.8,1.7l-7.1-7.1c13.3,1.6,27.3-1.5,39.9-1.9,8.4-.3,11.2,2.9,17.7,3.7,7,.9,46-.6,48.9,6.2l-16.3,8.5-29.8,6.6h24.9s0,.2,0,.2Z"/>
    <path class="cls-1" d="M643.3,266.6l25.4,12.7,20.6,7.9c.3,4.8-5.7,28.6-9.6,29l-21.7-22.8c-4.3-1.1-8.5,4.9-10.9,8.1-2,10.7,24,22.9,24.6,25,1.4,5,0,14.8-4.5,18.3-1.8-3.1-16.3-12.5-18.7-10.6l14.2,17.7c-13.5.7-24.7-7.8-37.3-10.7l3.5-7c-6.1.6-9.9-7.4-13.7-8.6-8.9-2.7-21.5,7.3-31.5,1.7l-.9-9c14.9-2.9,34.4.4,40-17.8,6-19.8-6.1-18.4-17-29.4-6.2-6.2-16.9-23.9-26.1-25.4-2.1-.4-17.8,6.4-23.7,3.2l.2,4.5c-10.3,2.7-50.7.8-50.8-13.6,0-5,8.7-37.6,11.5-41.2,4.5-5.9,25.6-6.2,32.2-4s11.9,17.9,18.8,22c9.1-1.7,23.7-10,32.6-5.9,3.8,1.8,8.9,10.6,13.6,13.1,6.1,3.2,13.1,2.2,20.1,6.5,4.7,2.9,20.9,17.7,24,22.3,1.3,1.9,3.6,4,1.2,6.1l-16.1,8h0Z"/>
    <path class="cls-1" d="M431.5,258.1c1.8,1.8,2.3,5.9,2.2,8.4-2.1-.7-3.8-1.9-6.2-1.9-9.5.2-13,8-.9,3.6l1.8,7.1c-9.8,4.8-19,1.9-28.9-1.9-1.6-.6-.8-4-3.9-3.5-4.1.6-5.2,4.5-8.2,6.2-10.6,5.7-22.4,8.3-34.3,9.8-3.1-1-2.5-6.6-4.6-8-3.7-2.5-25.4.9-26.7-11.4,11.4-4.9,22.8-2.6,34.4-3.8,1.8-.2,8.4-.7,8.2-3.3-6.7-.5-13.7-3.5-20.4-3.7-9.2-.2-21.3,6.3-27.5-3.4l10.6-4.5c-18.2-5.9-12.6-13.8-.8-24,8-6.9,26.5-16.2,16.8,1.7l18.3-3.7c4.5,11,11,1.2,16.1,2.2s6.2,10.7,11.8,10.3c1.2-6.4-1.7-12.6-1.8-18.6,0-2.9-.4-3,2.7-2.7,5.4.6,10.3,3.5,13.1,8.2,4.1,6.7,5.5,21,8.3,25.5,2,3.3,17.4,8.5,20,11.1h0v.3Z"/>
    <path class="cls-1" d="M1071.4,371.4l-7.1,12.4c6.2.7,13.1-5,17.7.9l-10.6,17.8c15.2,5.8,18.8,20.7,33.7,28.4l-8.9.9v5.2c0,0,10.6,2,10.6,2,2.1,8.3-2.9,12.5-5.2,19.5l8.9,1.8-58.6,12.4c7.7-5.9,12.6-17.3,23.1-16,2.9-2.3-.2-3.2-2.6-3.5-5.3-.7-11.5.5-16.9,0-1.4-5.9,7-3.2,8.7-8.3l-1.6-14.8,10.6,3.5-1.7-14.9-14-5.9c-4.4-7,3.9-9.6,3.3-16.5l-14.2,5.3c9.3-15.5-.4-29.8,24.9-30.2h-.1Z"/>
    <path class="cls-1" d="M2089.2,934.4c-12.5,1.6-30.1-20.1-40.8-15.1-2.1,1-4.2,4.9-7.7,6.6-15,7.6-19.2-7.8-35-3.9l8.4-7.9c-3.2-16.2-27.5-14.5-36.8-23.2-1.6-1.5-2.4-1.8-1.8-4.3l5.3-3.6c-2.5.7-19.8-3-16-7.1.3-.3,6.8-1.9,8.1-1.9,11.6-.3,9.1,10.6,17.7,15.7,4.9-.6,6.1-6.3,9.1-8.3,10-6.4,47.4,8.1,55.8,16.6,3.7,3.7,4.6,8.4,7.9,11.7,8,8.2,19.3,14.7,25.8,24.8h0Z"/>
    <path class="cls-1" d="M1881.4,861.6l-.9,3.6c-8.7.6-5.9,7.3-8.5,12.8-1.4,2.9-4.1,4.6-5.3,7.1-1.8,3.8-.3,10.4-4.2,11.8-5.4,1.9-9.4-2.6-14.1-3.3-3.4-.5-20.8-.9-22-2-.4-.4-.2-5.9-1.4-8.3-1.7-3.6-6.4-4.2-7.2-6.8-.2-.6-.3-11,0-11.8,1.8-10.4,7.8-4.2,13.9-1.3.2-2.1-.7-4.9.4-6.7.8-1.4,23-14.1,26.2-17.3l10.5-14.2c5-.7,10.8,7.3,14.1,10.7-7.7,7.2-13,21-1.5,25.8h0Z"/>
    <path class="cls-1" d="M1478.2,232.8c-11.2,2.9-44.8-10.7-38.2-24.8,1-2.2,4.8-4,6.3-6.2s9.6-15.9,9.8-16.8c4.5-14.7.4-13.1,14.2-24.9,16.7-14.3,23.3-12.2,41.6-18.8,7.8-2.8,26.6-14,31.6-14.7,3.3-.5,6.4,1.1,9.3,2.4,2.1,1.7,2.4,1.9,1,4.4-2.6,4.7-30.2,12.1-37.7,15.6-17.6,8.3-22.9,16.8-35.1,30.6-2.5,2.8-6.6,4-8.9,7-7.6,10-4.6,26.2.5,36.8,1.7,3.6,6,5.2,5.7,9.4h-.1Z"/>
    <path class="cls-1" d="M1430.2,985.9l-5.1,1.1c.2,22.9-9.8,44.1-13.6,66.4l-16.8,6.4c-1.1-.6-11.9-20.6-12.1-21.8-1.8-11.2,9.6-17.7,10.4-22.8,1.2-8.2-8.2-12.6-5.9-18,4.2-10.4,20.8-9.2,26.2-14.8,4.5-4.7,5.1-15,6.3-21.2,8.4-.9,12.9,21,10.6,24.9h0v-.2h0Z"/>
    <path class="cls-1" d="M524.3,94.3l10.6,4.5c-2.7,3.4-7.3,2.8-10.5,5.4s-6.8,12.5-7.5,13c-.9.6-20.1,1.9-21.5,1.7-3-.4-16.3-7.4-15.5-11.2l17.8-6.3c-10.1-12.9-33.5,8.7-37.3-14.2l14.2-2.7c-2.9-1.9-11,.7-10.4-5.1s12.5-18.8,19.6-18c9,1,33.1,21.7,42.1,26.8l-1.5,6h0Z"/>
    <path class="cls-1" d="M503,158.3c20.6,23,47.4-13.1,71.7,5.1,10,7.5-16.9,18.4-23.4,19.2-10.3,1.3-45.2,2.3-54.5.5-4.6-.9-8.6-6.8-8.1-11.4.7-5.5,7.1-5.7-1.8-14.3-9.1-8.8-22.2,4.8-24.8-13.3l39.2,4.3,7,5.5-5.3,4.5h0Z"/>
    <path class="cls-1" d="M947.3,323.2l-1.9-6.1-9-.8c8.3-10.8-2.5-13.9-12.4-10.7l10.3-9.8-3.2-6.2c16.2-2.6,12.9,10.4,20.4,19.5,3.4-1.7,3.1-9.1,4.8-10.3,1.3-.9,4.6,0,6.7-1.2,2.6-1.4,2.6-5,4.9-6.2,2.1-1.1,27.3-6.9,28.8-6.3s2.5,3.3,4.9,4.1c4.5,1.5,8.9-1.7,11.7,4.5,4,9-16.2,22.4-23.2,25.6-15.3,7-26.6,4.6-42.8,3.8h0Z"/>
    <path class="cls-1" d="M306.1,236.6c-1,1.2.6,6-1.9,9.6-8.4,12-28.4,3.2-33.8-7l12.3-23.5-5.3-13.2c7.5-.4,16.4-4.2,23.8-3.5,4.8.4,9.5,4.4,12.9,4.7,3.6.3,6.7-2.1,11.8-.9,2.9.7,9.1,5.7,12,7.6,1,4.2-17.3,12-20.5,15-2.9,2.8-3.4,7.2-5.3,9s-5.3,1.4-5.9,2h0v.2Z"/>
    <path class="cls-1" d="M2032.4,570.3c6.3,19.9-8.4,33.3-3.8,53.1-9.1,1.1-20.1,5.8-28.2,3.8l-.3,6.8-5.8,2.2-1.9-3.7c-2.2,6-8.6,3.3-9.4,3.8-1.6,1-2.3,7.7-8.3,8.7s-.5-15.4-8.9-12.5c-6.2,2.2,2.4,5.3,3.3,7.5,3.4,8.4-8.8,19.1-11.3,17.3-3.2-6.2.9-8.5,1.8-14.2l-7.1-.9c10.8-11.8,24.8-28.3,42.6-22.2l4.5-16c4.8-1.1,1.7,4.4,2.7,5.3,7.3,6.5,17.9-15.5,18.8-21.3,1.6-9.6-4.7-15.1,11.4-17.8h0Z"/>
    <path class="cls-1" d="M1789.5,887.8c2,1.9,6.9,1.4,8.2,5.2,2.9,8.8-1.1,25.7-13.1,18.5-3.5-2.1-6-8-8.8-10.9-10.1-10.5-14.8-17.5-22.3-29.6-2.7-4.3-8.8-16.7-11.5-20-2.5-3-15.3-6.3-15.1-14.2,14.9-2.3,17.5,7.5,25.8,14.2,7.4,6,24,13.1,28.2,19.7,2.1,3.4,5.4,14,8.6,17.2h0Z"/>
    <path class="cls-1" d="M394.6,172.4l3.6-8.1,7,1.1c0,22.2-12.9,16.3-28.1,20.6-11.8,3.4-25.3,18.5-35.8,5.9,6.9-1.4,17.1-2.8,21.3-8.9l-12.4,3.5-3.5-7.1c-2.2,10.5-14.2,9.6-21.5,4.3.6-15,20.8-23.8,32.7-16.4,3.7,2.3,2.6,7.2,5.8,8.4,4.5,1.6,13.2-.6,18.4.2,1.3-5.7-9.8-8.9-10.5-11.7l7.9-11.3,15.1,19.5h0Z"/>
    <path class="cls-1" d="M1742.5,65.6l-3.3,1.3.9,6.1,18.7,7.1c-.5,6.3-3.7,11.6,0,17.7-9.8.3-21.6-.1-30.7-3.9-5.7-2.3-5.7-5.4-9.8-8-7.5-4.6-26.7-3.5-16.4-15.7,2.4-2.9,6-2.9,8.4-4.9,1.4-1.1,1.9-4.1,4.1-5.7,3.9-2.7,9.7-2.5,13.7-5.8l14.7,9.4-.3,2.4h0Z"/>
    <path class="cls-1" d="M1934.7,859.8c-1,17-35.6,8.1-38.3,12.3s-1.4,11.9,1.9,12.6c.8.2,12-4.6,16.1-5.1,1.9-.2,6.4-1.6,6,1.6l-14.1,7.3,6.2,21.1c-8.5,9.6-10.3-5-13-10.1-1.1-2.1,0-3-4-2.3v23.1h-8.9c-.8-4.7,2.9-10.4,1.9-14.7-.5-2.2-7.4-2.5-6.9-7.1,2.1-5.9,7.3-12.2,8.8-18.1,1.2-4.8-1.3-8.7,1.5-12.6,9.1-9.3,20.4,0,31-1.3,5.1-.7,6.7-6.7,11.8-6.6h0Z"/>
    <path class="cls-1" d="M732.1,460.2c-3.7,9.6-7.1,10.6-1.6,21.1,15.6-6.4,24.5,20.9,14.9,30.4-1.5.7-.9-5.7-4-7.1-9.3-4.1-27.2-5.3-37.7-7.1l20.6-31.8,7.8-5.5h0Z"/>
    <path class="cls-1" d="M1023.3,435.5l-5-4.3c.4-6.2,11-8.8,12-10.4.8-1.2-2.4-3.5,1-6.8,6.9-6.7,20.8-.9,18.5,7.6-.7,2.6-3.9,4.3-4.2,7.5-.4,5,3.9,12.3-1.6,17.1-2.3,2-22.3,10.9-24.8,10.4l-2.8-4.2,6.9-16.8h0Z"/>
    <path class="cls-1" d="M456.2,207.4c-2.1,2.5-7.7,2.5-8.3,5.9,12.7-1.2,21.2,9.9,8.8,18.6-16.2,11.3-21.7-7.9-35.5-14.1-.6-2.4,2.1-4.5,4.5-4.5,5.1,0,2.9,6.7,7.1,5.4l4.5-8.8-10.6-4.5c-1.4-2.7,7-5.5,8.4-5.8,6.6-1.1,14-.4,20.7-.2,3.8.8,2.1,6.2.6,8.1h-.2Z"/>
    <path class="cls-1" d="M2028.8,176c.4-16.2,18.3,3.9,26.4,5.5,3.5,6.1-11.1,11.7-16.3,10.5-1.3-.3-1.1-3.3-2.4-3.6-.8-.2-14.7.3-15.5.5-3.3.8-4,6.4-10.5,4.6-2.7-.7-11.4-10.5-11.7-13.4s8.5-11,11.4-11.3l18.6,7.2h0Z"/>
    <path class="cls-1" d="M2245.4,1133.4c7.3,5.4-12.3,19.3-15.8,23.9-4.3,5.6-6.8,15.2-12.5,19.6-.7.5-15.3,6.8-15.9,6.2.4-5.5-1.7-7.5-7.1-7.1-.8-.7,12.1-16.8,13.3-17.8,4.6-4,13.4-5.8,17.7-10.8,3.2-3.7,5-12.8,9.9-15.1,2.8-1.3,4,1.3,6.3,1.9,1.2.3,3.6-1.2,4.2-.8h0Z"/>
    <path class="cls-1" d="M2041.3,440.6c4.5,7.7-.8,21.9.4,27.1.5,2.2,3.5,4.2,4.2,6.5,1.8,6.8,2.4,14.5,4.3,21.4l-8.1-.2c-8.4,11.4.5,19.4,2.8,30.4h-12.4c-1.3-6.5,1.1-12.9,1.6-18.8.5-7.5,2.2-18.2,2.1-24.7-.3-10.6-6-14.9-.7-27.1,1-2.2,4.1-2,4.2-3.3.3-3.5-5.8-12.5,1.7-11.3h-.1s0,0,0,0Z"/>
    <path class="cls-1" d="M321.8,161.8c-5.1-.5-5.8,6-9.7,8.9-1.4,1-11.7,5.8-13.3,6.3-7.3,1.9-9.5-2.4-4.2-7.9,3.6-3.7,11.8-11.4,15.8-14.4,7.1-5.4,22.5-15.6,29.2-6.3-5.7,4.8-9.8,28.9-17.8,13.3h0Z"/>
    <path class="cls-1" d="M566.9,337.6c-6.4,0-11.8-2.7-18.5-1.7-10,1.5-8.1,12.2-20.3,1.4,1.2-7,1.5-19,6-24.5,2.4-3,1.7-1,3.5,0,11.2,5.5,24.2,13,29.3,24.9h0Z"/>
    <path class="cls-1" d="M440.8,168.9c-7.4,2.1-16.2,3.9-21.3-3.5h10.6l-5.3-8.9c6.9-2,8.5,4.7,14.2,5.3l-5.3-8.9c4.9.3,17.5-4.6,20.5-.1,3.4,16.1,4.6,25.7-14.4,28.3-5.3-3.4-1-8.1.9-12.2h0Z"/>
    <path class="cls-1" d="M2057.2,543.6l1.7,10.5c-6.4,2.7-14.9-.4-14.1,9l-21.2-3.5,5.3,6.2-7.1,4.4c-8.9-15.8,6.1-14.3,9.8-19.5,2-2.8,2.2-13.8,2.7-17.8,8.6,5.4,11,16.5,23.1,10.6h-.2Z"/>
    <path class="cls-1" d="M2255.8,1101.6c1.7,1,2.6,8.1,9.7,6.5,1.6-.3,9.4-7.1,8.5-.5-1,7.6-6.6,7.6-8.4,10.3-2.7,4.2-5.8,18.9-13.8,17.2-5.4-1.1,1.3-6,.9-7.9l-7.1-2.7c4.6-8.9,5.2-22.9-1.7-30.7-2.1-2.4-8.1-1-7.2-6.5,11.2-3.6,10.5,12.9,14.1,15.2,1.2.8,3.9-1.4,5-.7h0v-.2Z"/>
    <path class="cls-1" d="M418.9,105.5c6.4,4.4,4.9,2.8,11.2,5.6,8.3,3.8,14.6,9.8,17.7,18.7-13.7,1.8-22.2-10.6-37.3-7.1-1.8-6,6.6-2.8,7.1-7.1-3.8-1.6-7.6-1.4-11.5-1.9-2.5-.3-5.2,1.6-4.5-2.6,4.4-5.3,10.8-10.1,17.2-5.6,0,0,0,0,0,0Z"/>
    <path class="cls-1" d="M1781.9,92.5l-5.3,5.3c5.6,0,13.1,5.1,16.8,8.9,1.8,1.8,3.9,2.3.9,4.4-7.8,5.3-15.2.9-22.2.9s-13.6,5.2-18.6-.9l15.9-17.8,12.4-.9h0Z"/>
    <path class="cls-1" d="M595.3,749.7l-17-3.5c1.9-14.8-6.2-17.2-16.7-24l3.5-2.6c-5.9-1.2-11.4,1.3-16.9,1.7-1.9.2-6.6,1.3-6.2-1.7,11-5,20.6-6.2,31.8-.8l21.5,30.9h0Z"/>
    <path class="cls-1" d="M1853,929.1c-3.4.4-6.3-1.7-9.8-1.8-9.9,0-22-.5-31.6-2.2-2.6-.5-17.4-5.5-15.5-9.4,8.1-8.5,16.4,1.6,22.3,2.6s11.3-2.5,17.2-1.4c5.1,1,14.9,7.2,17.3,12.1h0Z"/>
    <path class="cls-1" d="M600.2,768c-3.2-2.4-8.7-1.4-10.2-5.8l12.4,1.8-.8-10.7c7.7,2.6,34.3,5.4,30.5,16.9-1.2,3.8-2.6,1.7-4.4,1.5-5.1-.6-10.3-3-15.5-2.6-3.8.3-7.3,4.1-8.8,3.7-1.6-.4-2.1-4-3.2-4.8h0Z"/>
    <path class="cls-1" d="M1906.3,747.9c-2.5,4.3-1.2,9.5-3,13.8-1.3,3.2-7.4,2.9-2.4,13.4l14,3.2.2,6.8c-6.8-7.3-6.4-2.7-9.7-2.6-8.1.3-8.8-9.7-17.1-10.9v-9.6c0,0,3.7,1.8,3.7,1.8-2.5-6.4.5-11.5,1.8-17.8l12.4,1.8h0Z"/>
    <path class="cls-1" d="M2055.9,1161.3c-3.4-3.2-4.6-12.7-4-17.3,5-.8,8.5,3.8,13.3,3.7,6.9,0,10.6-9.8,15-4.6-2.9,9.2-12.6,29.3-24.4,18.2h0Z"/>
    <path class="cls-1" d="M1389.4,55.2c-.4-2.6,3.1-2.4,4.9-3,15.7-5.1,32.2-5.5,48.3-2.3.5,4.6,0,2.8-2.6,3.6-4.3,1.3-12.3,1-15.2,2.6-3.3,2-7.2,15.5-16,4.5l10.7-1.8c.5-.7-2.3-3.5-2.7-3.5h-27.5,0Z"/>
    <path class="cls-1" d="M1931.1,827.8l-5.3-5.3,1.8,8.9h-10.5c0,0-1.8-11.7-1.8-11.7-7.6-3.5-7.2,2.2-11.7,6.3-2.8-16.3,21.7-7.4,23.1-19.5,6.5,5.6,7.5,13.6,4.4,21.3h0Z"/>
    <path class="cls-1" d="M442.6,275.4l9.9-14.3c5.3-.9,16.2,9.7,20.2,13.5-9,9.4-19.7,1.9-30.2.9h0Z"/>
    <path class="cls-1" d="M2060.8,184.9c7-1.4,13.2,4,18.7,5.2,3.1.7,16.5-1.8,15,4.5-2.1,8.7-36.1,4.3-33.7-9.7Z"/>
    <path class="cls-1" d="M1916.9,790.5l-2,9.5c-2.8,1.4-6.7,11-9.5,10-5.8-2.2-5-8.7-.9-12.4l-8.1-1.7v-7.3c6.4-5.1,10.1,1.7,14.6,5.3l6-3.5h0Z"/>
    <path class="cls-1" d="M1165.5,563.2c.8,10.2,1.2,22.6-12.2,21.1-6.7-11.9-1.8-21.2,12.2-21.1Z"/>
    <path class="cls-1" d="M591.8,202.7c-.5,2.6-8.2,4.6-10.2,4.9-10.2,1.4-18.5-1.6-21.8-12,11.7-1.7,21.4,3.5,32,7.1h0Z"/>
    <path class="cls-1" d="M2030.1,201.3c2.2,1.9,12.5,12,13.7,13.9,2,3.1,4,4.3.1,7-3.2-2.5-18.6-9.5-20-11-.3-.4.7-2.3.2-3.2-1.5-2.6-4.9-3.5-4.2-7.1,3.7-.1,7-2.2,10.1.5h0Z"/>
    <path class="cls-1" d="M455,124.5l3.6-.9-7.2-13.3,23.1,9.8c1.2,5-17.8,14.6-19.5,4.4h0Z"/>
    <path class="cls-1" d="M2304.2,275.4l-32,1.8v-8.9c11.3,4.2,26.6-4.6,32,7.1h0Z"/>
    <path class="cls-1" d="M472.4,167.4c9.4-2.4,11.7,12,7.7,14.9-4.5,3.2-14.3-1.8-17.9-5.5-.7-2.8,8-8.8,10.2-9.4h0Z"/>
    <path class="cls-1" d="M1625.7,834.9c.2-3.9-1.7-7.5-1.7-11.3s.8-12.9,4.2-11.7c4.3,4.1,14.4,18.3,6.2,22.2l-8.8.8h.1Z"/>
    <path class="cls-1" d="M376.9,131.6l-8.9,3.5c1,4,6.9,1.9,5.3,7.1-7.5,1.9-21,9.1-19.3-4.2,1.7-5.2,17.7-7.4,22.9-6.5h0Z"/>
    <path class="cls-1" d="M1902.7,700c.9,8.3-2.2,16.1-6.2,23.1l-7.9-16.6,14.1-6.5h0Z"/>
    <path class="cls-1" d="M1469.3,44.5c1.4-11.4,17.9-16.5,26.6-9.8-7.3,6.6-17.4,7.8-26.6,9.8Z"/>
    <path class="cls-1" d="M1502.5,46.7c13.8-.1-.7,22.9-13.7,9.4-.9-4.1,10.5-9.4,13.7-9.4Z"/>
    <path class="cls-1" d="M1709.1,51.7l-18.8,10.7c-4.5.5-6.7-3.5-9.6-6.2,9.8-2,18.2-7.6,28.4-4.4h0Z"/>
    <path class="cls-1" d="M504.7,128c1.5,7-4.9,7.6-10.2,8.4-9.4,1.4-16.2-1.4-25.3-1.3l35.5-7.1h0Z"/>
    <path class="cls-1" d="M602.4,296.8c-4.4-3.1-13.9-10.3-9.8-16.1l8.8-3.3c5.2,1.3,2.4,15.5,1,19.4h0Z"/>
    <path class="cls-1" d="M1966.7,897.1c-10.8-4.2-14.8-2.7-24.8,1.8v-7.7c1.1-5.2,25.2-4.2,24.9,5.9h0Z"/>
    <path class="cls-1" d="M2076.8,902.5c8.7.2,21.3,1.6,19.6-10.7,3.7-.5,6.5,2.9,7.2,6.2,0,5.8-24.4,15.4-26.7,4.4h-.1Z"/>
    <path class="cls-1" d="M352,129.8c1.5-6.6,27.1-14.1,28.4-8,.2,3-1.9,4-4.5,4.4-7.5,1.3-16.2,1.6-24,3.6h.1Z"/>
    <path class="cls-1" d="M231.2,447.7l3.6,19.5c-3.5,3.6-13.3-13.9-14-17.1-1.1-4.8,7.6-1.7,10.5-2.5h-.1Z"/>
    <path class="cls-1" d="M749.3,243.7c3.2-.3,6.8,6.7,7.7,9.5-16.2,13-20.5-8.5-7.7-9.5Z"/>
    <path class="cls-1" d="M447.9,99.6c-6.6.8-13-1.7-17.7-6.2l14.8-4.3c4.1,1.3,2.9,7.1,2.9,10.5h0Z"/>
    <path class="cls-1" d="M1513.7,55.2c-.6-7.4,7.4-4.1,10.3-5.7.6-.4,8.3-13.8,11-4,2.2,8.2-16.6,10-21.3,9.7h0Z"/>
    <path class="cls-1" d="M1829.9,737.3c.4,2.5-.3,4.4-1.4,6.6-7.2,15.3-28.2-4.5,1.4-6.6Z"/>
    <path class="cls-1" d="M1945.3,854.5c.2,3.9,1.9,7.4,1.9,11.5s-.8,10.8-4.5,9.8c-3.8-6-7.9-20.8,2.6-21.3h0Z"/>
    <path class="cls-1" d="M408.6,202.9c2.6,4.6,1.7,8.7-2.4,12.2l-11.5-7.1c-.2-7.2,8.9-5.6,14-5.1h-.1Z"/>
    <path class="cls-1" d="M1277.4,620.1c.4,2.6-4.6,3.2-6.2,3.2-2.6,0-18.7-1.8-18.7-4.1,6.9-5.6,17.8-2.7,24.8.9h0Z"/>
    <path class="cls-1" d="M1433.8,248.8c4.2,4-15.2,8.4-17.8,7.1-1-10.1,11.2-8.8,17.8-7.1Z"/>
    <path class="cls-1" d="M1934.7,925.5c-2.5,3-18.7,14.8-21.3,12.4,1.9-8,13.6-13.5,21.3-12.4Z"/>
    <path class="cls-1" d="M1478.2,48.1c-.8,9.3-15.4,4.9-21.3,3.5-2.5-2.6.2-3.2,2.6-3.5,5.8-.7,12.7.5,18.7,0h0Z"/>
    <path class="cls-1" d="M2359.2,371.3l-23.1-3.5v-5.3c1.3-1.4,22.1,4.1,23.1,8.8Z"/>
    <path class="cls-1" d="M98,417.6l-12.4,9.8c-9,1.8-4.3-7.8,1.2-9.4,3.5-1,7.6-.2,11.2-.4h0Z"/>
    <path class="cls-1" d="M1307.7,620l16-1.8c.5,10.9-16.9,13.5-16,1.8Z"/>
    <path class="cls-1" d="M559.8,344.7c-.3,6.8-8.5,9.5-14.2,8.9l1.7-8.1,12.5-.8h0Z"/>
    <path class="cls-1" d="M421.3,163.5l-10.5-.2-2-8.7c7.3-2.2,14-.2,12.5,8.9h0Z"/>
    <path class="cls-1" d="M1487,58.8c-1.3,2.3-10,6.5-11.9,6.8-2.7.4-5-.9-7.5-1.6v-5.2c0,0,19.4,0,19.4,0h0s0,0,0,0Z"/>
    <path class="cls-1" d="M1938.2,897.1l-11.2,1.6c-9.3-10.4,7.3-11.1,11.2-1.6Z"/>
    <path class="cls-1" d="M1456.9,58.8c4.4,4.5-9.6,3.8-11.6,3.6-3.1-.3-5.8.2-7.9-2.8,6.2-3.3,13-3.3,19.5-.9h0Z"/>
    <path class="cls-1" d="M691.3,483.3c1,9.1-17.4,0-17.7-2.7-.6-5.2,16,3.2,17.7,2.7Z"/>
    <path class="cls-1" d="M1494.2,243.5c-6,1-8.7-4.7-12.4-8,4.3-7.8,14.7,5.8,12.4,8Z"/>
    <path class="cls-1" d="M1162,559.6c-11.3-1.8-5.1-9.9-.9-16l.9,16Z"/>
    <path class="cls-1" d="M1883.2,925.5c.9,5.4-1.3,2.8-4.3,3.6-4.9,1.2-10.1,2.1-15.2,1.7-.6-3.3,0-4,3.4-4.3,4.9-.5,10.9.4,16.2-1h0Z"/>
    <path class="cls-1" d="M1888.5,795.9c3.2,4.2-12.2,19.8-14.2,17.7,4.4-4.5,6.7-9,9.8-14.2,1.3-2.3-.3-4.5,4.4-3.5h0Z"/>
    <path class="cls-1" d="M410.6,145.8c-2.5-.6-14.6-6.6-10.6-10.6s12.8,5.9,10.6,10.6Z"/>
    <path class="cls-1" d="M654,781.6c-3.2,1.1-14.2-.6-14.2-4.4,0-5.4,13.8.8,14.2,4.4Z"/>
    <path class="cls-1" d="M1572.3,192c-5.5.2-11.9-2.2-10.6-8.9,1.4-1.5,12.1,4.7,10.6,8.9Z"/>
    <path class="cls-1" d="M579.4,350.1c-.4,8.1-8.3,13.5-8.8,2.7l8.8-2.7Z"/>
    <path class="cls-1" d="M2124.8,909.5c-2.6,2.4-12.2-9.6-12.4-12.4,2.8-2.6,13.4,11.5,12.4,12.4Z"/>
    <path class="cls-1" d="M1922.3,795.9c-.8-4-3.6-5.2-3.5-8.9h7.1v10.6c-.4.7-2.6-1.6-3.5-1.8.4,2.1-.2,4.8,0,7.1l-3.5-7.1c1.2,0,2.5-.2,3.6,0h-.2Z"/>
    <path class="cls-1" d="M321.8,172.4c-.3,6.4-4.1,10.1-10.6,8.9.6-2.1,8.8-10.8,10.6-8.9Z"/>
    <path class="cls-1" d="M1122.9,575.6c.4,6.2-5.9,5.6-10.6,5.3-.4-6.2,5.9-5.6,10.6-5.3Z"/>
    <path class="cls-1" d="M574,760.3c-2.7.5-11.7.6-10.7-4.4,1.1-5.5,10.6,1.9,10.7,4.4Z"/>
    <path class="cls-1" d="M1904.5,927.3c0,3-8.1,2.1-9.8,1.8-2.7-.4-5.5-.3-6.2-3.6l16,1.8h0Z"/>
    <path class="cls-1" d="M10.9,401.5c-3.7-.8-12.1,2.8-10.7-3.5l7.8-1.5,2.8,5h0Z"/>
    <path class="cls-1" d="M1893.8,934.4c1.3,7.1-7,1.2-10.7,1.7.6-8.8,5.1-2.5,10.7-1.7Z"/>
    <path class="cls-1" d="M350.2,136.9c1.3,7.1-7,1.1-10.6,1.7l10.6-1.7Z"/>
    <polygon class="cls-1" points="417.7 179.5 408.8 181.3 408.9 178.7 411.6 176.1 415 176.1 417.7 179.5"/>
    <path class="cls-1" d="M350.2,152.9v2.6c-1.9,2.8-3.8,3.1-7.1,2.7v-3.5l7.1-1.8h0Z"/>
    <path class="cls-1" d="M98,410.4v3.5l-8.9,1.8c-1.2-1,6.4-6.3,8.9-5.3h0Z"/>
    <rect class="cls-1" x="1906.3" y="925.5" width="7.1" height="1.7"/>
    <rect class="cls-1" x="1623.9" y="806.5" width="1.7" height="3.5"/>
    <rect class="cls-1" x="1916.9" y="923.8" width="3.5" height="1.7"/>
  </g>
</svg>